%
M48
M72
T01C0.01200
T02C0.03150
T03C0.04000
T04C0.06000
%
T01
X12000Y36500
X83500Y66000
X128000Y83000
X50000Y110500
X43500Y117000
X43500Y139500
X14000Y117500
X10500Y137500
X119000Y159500
T02
X21500Y66189
X21500Y74063
X21500Y81937
X21500Y89811
X54000Y89811
X54000Y81937
X54000Y74063
X54000Y66189
T03
X101500Y138000
X111500Y138000
X121500Y138000
X131500Y138000
X141500Y138000
X151500Y138000
T04
X14500Y16000
X13000Y156000
X165000Y157000
X164000Y15500
M30
