G75*
%MOIN*%
%OFA0B0*%
%FSLAX25Y25*%
%IPPOS*%
%LPD*%
%AMOC8*
5,1,8,0,0,1.08239X$1,22.5*
%
%ADD10C,0.00100*%
%ADD11OC8,0.07000*%
%ADD12R,0.05150X0.05150*%
%ADD13C,0.05150*%
%ADD14C,0.12000*%
%ADD15C,0.01000*%
%ADD16OC8,0.02400*%
%ADD17C,0.02400*%
D10*
X0001500Y0003000D02*
X0176000Y0003000D01*
X0176000Y0168000D01*
X0001500Y0168000D01*
X0001500Y0003000D01*
D11*
X0101500Y0138000D03*
X0111500Y0138000D03*
X0121500Y0138000D03*
X0131500Y0138000D03*
X0141500Y0138000D03*
X0151500Y0138000D03*
D12*
X0054000Y0089811D03*
X0021500Y0089811D03*
D13*
X0021500Y0081937D03*
X0021500Y0074063D03*
X0021500Y0066189D03*
X0054000Y0066189D03*
X0054000Y0074063D03*
X0054000Y0081937D03*
D14*
X0014500Y0016000D03*
X0013000Y0156000D03*
X0165000Y0157000D03*
X0164000Y0015500D03*
D15*
X0161071Y0021972D02*
X0018569Y0021972D01*
X0018522Y0022019D02*
X0015912Y0023100D01*
X0013088Y0023100D01*
X0010478Y0022019D01*
X0008481Y0020022D01*
X0007400Y0017412D01*
X0007400Y0014588D01*
X0008481Y0011978D01*
X0010478Y0009981D01*
X0013088Y0008900D01*
X0015912Y0008900D01*
X0018522Y0009981D01*
X0020519Y0011978D01*
X0021600Y0014588D01*
X0021600Y0017412D01*
X0020519Y0020022D01*
X0018522Y0022019D01*
X0019568Y0020973D02*
X0159432Y0020973D01*
X0159978Y0021519D02*
X0157981Y0019522D01*
X0156900Y0016912D01*
X0156900Y0014088D01*
X0157981Y0011478D01*
X0159978Y0009481D01*
X0162588Y0008400D01*
X0165412Y0008400D01*
X0168022Y0009481D01*
X0170019Y0011478D01*
X0171100Y0014088D01*
X0171100Y0016912D01*
X0170019Y0019522D01*
X0168022Y0021519D01*
X0165412Y0022600D01*
X0162588Y0022600D01*
X0159978Y0021519D01*
X0158434Y0019975D02*
X0020539Y0019975D01*
X0020952Y0018976D02*
X0157755Y0018976D01*
X0157341Y0017978D02*
X0021366Y0017978D01*
X0021600Y0016979D02*
X0156928Y0016979D01*
X0156900Y0015981D02*
X0021600Y0015981D01*
X0021600Y0014982D02*
X0156900Y0014982D01*
X0156943Y0013984D02*
X0021350Y0013984D01*
X0020936Y0012985D02*
X0157357Y0012985D01*
X0157770Y0011987D02*
X0020523Y0011987D01*
X0019529Y0010988D02*
X0158471Y0010988D01*
X0159469Y0009990D02*
X0018530Y0009990D01*
X0016132Y0008991D02*
X0161161Y0008991D01*
X0166839Y0008991D02*
X0174450Y0008991D01*
X0174450Y0007993D02*
X0003050Y0007993D01*
X0003050Y0008991D02*
X0012868Y0008991D01*
X0010469Y0009990D02*
X0003050Y0009990D01*
X0003050Y0010988D02*
X0009471Y0010988D01*
X0008477Y0011987D02*
X0003050Y0011987D01*
X0003050Y0012985D02*
X0008064Y0012985D01*
X0007650Y0013984D02*
X0003050Y0013984D01*
X0003050Y0014982D02*
X0007400Y0014982D01*
X0007400Y0015981D02*
X0003050Y0015981D01*
X0003050Y0016979D02*
X0007400Y0016979D01*
X0007634Y0017978D02*
X0003050Y0017978D01*
X0003050Y0018976D02*
X0008048Y0018976D01*
X0008461Y0019975D02*
X0003050Y0019975D01*
X0003050Y0020973D02*
X0009432Y0020973D01*
X0010431Y0021972D02*
X0003050Y0021972D01*
X0003050Y0022970D02*
X0012774Y0022970D01*
X0016226Y0022970D02*
X0174450Y0022970D01*
X0174450Y0021972D02*
X0166929Y0021972D01*
X0168568Y0020973D02*
X0174450Y0020973D01*
X0174450Y0019975D02*
X0169566Y0019975D01*
X0170245Y0018976D02*
X0174450Y0018976D01*
X0174450Y0017978D02*
X0170659Y0017978D01*
X0171072Y0016979D02*
X0174450Y0016979D01*
X0174450Y0015981D02*
X0171100Y0015981D01*
X0171100Y0014982D02*
X0174450Y0014982D01*
X0174450Y0013984D02*
X0171057Y0013984D01*
X0170643Y0012985D02*
X0174450Y0012985D01*
X0174450Y0011987D02*
X0170230Y0011987D01*
X0169529Y0010988D02*
X0174450Y0010988D01*
X0174450Y0009990D02*
X0168530Y0009990D01*
X0174450Y0006994D02*
X0003050Y0006994D01*
X0003050Y0005996D02*
X0174450Y0005996D01*
X0174450Y0004997D02*
X0003050Y0004997D01*
X0003050Y0004550D02*
X0003050Y0166450D01*
X0174450Y0166450D01*
X0174450Y0004550D01*
X0003050Y0004550D01*
X0003050Y0023969D02*
X0174450Y0023969D01*
X0174450Y0024967D02*
X0003050Y0024967D01*
X0003050Y0025966D02*
X0174450Y0025966D01*
X0174450Y0026964D02*
X0003050Y0026964D01*
X0003050Y0027963D02*
X0174450Y0027963D01*
X0174450Y0028961D02*
X0003050Y0028961D01*
X0003050Y0029960D02*
X0174450Y0029960D01*
X0174450Y0030958D02*
X0003050Y0030958D01*
X0003050Y0031957D02*
X0174450Y0031957D01*
X0174450Y0032955D02*
X0003050Y0032955D01*
X0003050Y0033954D02*
X0174450Y0033954D01*
X0174450Y0034952D02*
X0003050Y0034952D01*
X0003050Y0035951D02*
X0174450Y0035951D01*
X0174450Y0036949D02*
X0003050Y0036949D01*
X0003050Y0037948D02*
X0174450Y0037948D01*
X0174450Y0038946D02*
X0003050Y0038946D01*
X0003050Y0039945D02*
X0174450Y0039945D01*
X0174450Y0040943D02*
X0003050Y0040943D01*
X0003050Y0041942D02*
X0174450Y0041942D01*
X0174450Y0042940D02*
X0003050Y0042940D01*
X0003050Y0043939D02*
X0174450Y0043939D01*
X0174450Y0044937D02*
X0003050Y0044937D01*
X0003050Y0045936D02*
X0174450Y0045936D01*
X0174450Y0046934D02*
X0003050Y0046934D01*
X0003050Y0047933D02*
X0174450Y0047933D01*
X0174450Y0048932D02*
X0003050Y0048932D01*
X0003050Y0049930D02*
X0174450Y0049930D01*
X0174450Y0050929D02*
X0003050Y0050929D01*
X0003050Y0051927D02*
X0174450Y0051927D01*
X0174450Y0052926D02*
X0003050Y0052926D01*
X0003050Y0053924D02*
X0174450Y0053924D01*
X0174450Y0054923D02*
X0003050Y0054923D01*
X0003050Y0055921D02*
X0174450Y0055921D01*
X0174450Y0056920D02*
X0003050Y0056920D01*
X0003050Y0057918D02*
X0174450Y0057918D01*
X0174450Y0058917D02*
X0003050Y0058917D01*
X0003050Y0059915D02*
X0174450Y0059915D01*
X0174450Y0060914D02*
X0003050Y0060914D01*
X0003050Y0061912D02*
X0174450Y0061912D01*
X0174450Y0062911D02*
X0056420Y0062911D01*
X0056655Y0063081D02*
X0056136Y0062704D01*
X0055564Y0062413D01*
X0054954Y0062215D01*
X0054321Y0062114D01*
X0054287Y0062114D01*
X0054287Y0065901D01*
X0053713Y0065901D01*
X0053713Y0062114D01*
X0053679Y0062114D01*
X0053046Y0062215D01*
X0052436Y0062413D01*
X0051864Y0062704D01*
X0051345Y0063081D01*
X0050892Y0063534D01*
X0050515Y0064053D01*
X0050224Y0064625D01*
X0050026Y0065235D01*
X0049925Y0065868D01*
X0049925Y0065902D01*
X0053713Y0065902D01*
X0053713Y0066476D01*
X0049925Y0066476D01*
X0049925Y0066510D01*
X0050026Y0067143D01*
X0050224Y0067753D01*
X0050515Y0068325D01*
X0050892Y0068844D01*
X0051345Y0069297D01*
X0051864Y0069674D01*
X0052436Y0069965D01*
X0053046Y0070163D01*
X0053679Y0070264D01*
X0053713Y0070264D01*
X0053713Y0066476D01*
X0054287Y0066476D01*
X0054287Y0070264D01*
X0054321Y0070264D01*
X0054954Y0070163D01*
X0055564Y0069965D01*
X0056136Y0069674D01*
X0056655Y0069297D01*
X0057108Y0068844D01*
X0057485Y0068325D01*
X0057776Y0067753D01*
X0057974Y0067143D01*
X0058075Y0066510D01*
X0058075Y0066476D01*
X0054287Y0066476D01*
X0054287Y0065902D01*
X0058075Y0065902D01*
X0058075Y0065868D01*
X0057974Y0065235D01*
X0057776Y0064625D01*
X0057485Y0064053D01*
X0057108Y0063534D01*
X0056655Y0063081D01*
X0057380Y0063909D02*
X0174450Y0063909D01*
X0174450Y0064908D02*
X0057868Y0064908D01*
X0058012Y0066905D02*
X0174450Y0066905D01*
X0174450Y0067903D02*
X0057700Y0067903D01*
X0057050Y0068902D02*
X0174450Y0068902D01*
X0174450Y0069900D02*
X0055692Y0069900D01*
X0055964Y0070899D02*
X0174450Y0070899D01*
X0174450Y0071897D02*
X0057031Y0071897D01*
X0057115Y0071981D02*
X0057675Y0073332D01*
X0057675Y0074794D01*
X0057115Y0076145D01*
X0056082Y0077178D01*
X0054731Y0077738D01*
X0053269Y0077738D01*
X0051918Y0077178D01*
X0050885Y0076145D01*
X0050325Y0074794D01*
X0050325Y0073332D01*
X0050885Y0071981D01*
X0051918Y0070948D01*
X0053269Y0070388D01*
X0054731Y0070388D01*
X0056082Y0070948D01*
X0057115Y0071981D01*
X0057494Y0072896D02*
X0174450Y0072896D01*
X0174450Y0073894D02*
X0057675Y0073894D01*
X0057634Y0074893D02*
X0174450Y0074893D01*
X0174450Y0075891D02*
X0057220Y0075891D01*
X0056370Y0076890D02*
X0174450Y0076890D01*
X0174450Y0077888D02*
X0003050Y0077888D01*
X0003050Y0076890D02*
X0019130Y0076890D01*
X0019418Y0077178D02*
X0018385Y0076145D01*
X0017825Y0074794D01*
X0017825Y0073332D01*
X0018385Y0071981D01*
X0019418Y0070948D01*
X0020769Y0070388D01*
X0022231Y0070388D01*
X0023582Y0070948D01*
X0024615Y0071981D01*
X0025175Y0073332D01*
X0025175Y0074794D01*
X0024615Y0076145D01*
X0023582Y0077178D01*
X0022231Y0077738D01*
X0020769Y0077738D01*
X0019418Y0077178D01*
X0019418Y0078822D02*
X0020769Y0078262D01*
X0022231Y0078262D01*
X0023582Y0078822D01*
X0024615Y0079855D01*
X0025175Y0081206D01*
X0025175Y0082668D01*
X0024615Y0084019D01*
X0023582Y0085052D01*
X0022231Y0085612D01*
X0020769Y0085612D01*
X0019418Y0085052D01*
X0018385Y0084019D01*
X0017825Y0082668D01*
X0017825Y0081206D01*
X0018385Y0079855D01*
X0019418Y0078822D01*
X0019353Y0078887D02*
X0003050Y0078887D01*
X0003050Y0079885D02*
X0018372Y0079885D01*
X0017959Y0080884D02*
X0003050Y0080884D01*
X0003050Y0081882D02*
X0017825Y0081882D01*
X0017913Y0082881D02*
X0003050Y0082881D01*
X0003050Y0083879D02*
X0018327Y0083879D01*
X0019244Y0084878D02*
X0003050Y0084878D01*
X0003050Y0085876D02*
X0174450Y0085876D01*
X0174450Y0084878D02*
X0056256Y0084878D01*
X0056082Y0085052D02*
X0054731Y0085612D01*
X0053269Y0085612D01*
X0051918Y0085052D01*
X0050885Y0084019D01*
X0050325Y0082668D01*
X0050325Y0081206D01*
X0050885Y0079855D01*
X0051918Y0078822D01*
X0053269Y0078262D01*
X0054731Y0078262D01*
X0056082Y0078822D01*
X0057115Y0079855D01*
X0057675Y0081206D01*
X0057675Y0082668D01*
X0057115Y0084019D01*
X0056082Y0085052D01*
X0057030Y0086136D02*
X0057675Y0086781D01*
X0057675Y0092841D01*
X0057030Y0093486D01*
X0050970Y0093486D01*
X0050325Y0092841D01*
X0050325Y0086781D01*
X0050970Y0086136D01*
X0057030Y0086136D01*
X0057675Y0086875D02*
X0174450Y0086875D01*
X0174450Y0087873D02*
X0057675Y0087873D01*
X0057675Y0088872D02*
X0174450Y0088872D01*
X0174450Y0089870D02*
X0057675Y0089870D01*
X0057675Y0090869D02*
X0174450Y0090869D01*
X0174450Y0091868D02*
X0057675Y0091868D01*
X0057650Y0092866D02*
X0174450Y0092866D01*
X0174450Y0093865D02*
X0003050Y0093865D01*
X0003050Y0094863D02*
X0174450Y0094863D01*
X0174450Y0095862D02*
X0003050Y0095862D01*
X0003050Y0096860D02*
X0174450Y0096860D01*
X0174450Y0097859D02*
X0003050Y0097859D01*
X0003050Y0098857D02*
X0174450Y0098857D01*
X0174450Y0099856D02*
X0003050Y0099856D01*
X0003050Y0100854D02*
X0174450Y0100854D01*
X0174450Y0101853D02*
X0003050Y0101853D01*
X0003050Y0102851D02*
X0174450Y0102851D01*
X0174450Y0103850D02*
X0003050Y0103850D01*
X0003050Y0104848D02*
X0174450Y0104848D01*
X0174450Y0105847D02*
X0003050Y0105847D01*
X0003050Y0106845D02*
X0174450Y0106845D01*
X0174450Y0107844D02*
X0003050Y0107844D01*
X0003050Y0108842D02*
X0174450Y0108842D01*
X0174450Y0109841D02*
X0003050Y0109841D01*
X0003050Y0110839D02*
X0174450Y0110839D01*
X0174450Y0111838D02*
X0003050Y0111838D01*
X0003050Y0112836D02*
X0174450Y0112836D01*
X0174450Y0113835D02*
X0003050Y0113835D01*
X0003050Y0114833D02*
X0042414Y0114833D01*
X0042547Y0114700D02*
X0044453Y0114700D01*
X0045800Y0116047D01*
X0045800Y0117953D01*
X0045100Y0118653D01*
X0045100Y0137847D01*
X0045800Y0138547D01*
X0045800Y0140453D01*
X0044453Y0141800D01*
X0042547Y0141800D01*
X0041200Y0140453D01*
X0041200Y0138547D01*
X0041900Y0137847D01*
X0041900Y0118653D01*
X0041200Y0117953D01*
X0041200Y0116047D01*
X0042547Y0114700D01*
X0041416Y0115832D02*
X0003050Y0115832D01*
X0003050Y0116830D02*
X0041200Y0116830D01*
X0041200Y0117829D02*
X0003050Y0117829D01*
X0003050Y0118827D02*
X0041900Y0118827D01*
X0041900Y0119826D02*
X0003050Y0119826D01*
X0003050Y0120824D02*
X0041900Y0120824D01*
X0041900Y0121823D02*
X0003050Y0121823D01*
X0003050Y0122821D02*
X0041900Y0122821D01*
X0041900Y0123820D02*
X0003050Y0123820D01*
X0003050Y0124818D02*
X0041900Y0124818D01*
X0041900Y0125817D02*
X0003050Y0125817D01*
X0003050Y0126815D02*
X0041900Y0126815D01*
X0041900Y0127814D02*
X0003050Y0127814D01*
X0003050Y0128812D02*
X0041900Y0128812D01*
X0041900Y0129811D02*
X0003050Y0129811D01*
X0003050Y0130809D02*
X0041900Y0130809D01*
X0041900Y0131808D02*
X0003050Y0131808D01*
X0003050Y0132806D02*
X0041900Y0132806D01*
X0041900Y0133805D02*
X0003050Y0133805D01*
X0003050Y0134803D02*
X0041900Y0134803D01*
X0041900Y0135802D02*
X0003050Y0135802D01*
X0003050Y0136801D02*
X0041900Y0136801D01*
X0041900Y0137799D02*
X0003050Y0137799D01*
X0003050Y0138798D02*
X0041200Y0138798D01*
X0041200Y0139796D02*
X0003050Y0139796D01*
X0003050Y0140795D02*
X0041542Y0140795D01*
X0042540Y0141793D02*
X0003050Y0141793D01*
X0003050Y0142792D02*
X0129221Y0142792D01*
X0129429Y0143000D02*
X0126500Y0140071D01*
X0126500Y0138500D01*
X0131000Y0138500D01*
X0131000Y0143000D01*
X0129429Y0143000D01*
X0131000Y0142792D02*
X0132000Y0142792D01*
X0132000Y0143000D02*
X0133571Y0143000D01*
X0136500Y0140071D01*
X0136500Y0138500D01*
X0132000Y0138500D01*
X0132000Y0137500D01*
X0136500Y0137500D01*
X0136500Y0135929D01*
X0133571Y0133000D01*
X0132000Y0133000D01*
X0132000Y0137500D01*
X0131000Y0137500D01*
X0131000Y0133000D01*
X0129429Y0133000D01*
X0126500Y0135929D01*
X0126500Y0137500D01*
X0131000Y0137500D01*
X0131000Y0138500D01*
X0132000Y0138500D01*
X0132000Y0143000D01*
X0132000Y0141793D02*
X0131000Y0141793D01*
X0131000Y0140795D02*
X0132000Y0140795D01*
X0132000Y0139796D02*
X0131000Y0139796D01*
X0131000Y0138798D02*
X0132000Y0138798D01*
X0132000Y0137799D02*
X0136900Y0137799D01*
X0136900Y0136801D02*
X0136500Y0136801D01*
X0136900Y0136095D02*
X0139595Y0133400D01*
X0143405Y0133400D01*
X0146100Y0136095D01*
X0146100Y0139905D01*
X0143405Y0142600D01*
X0139595Y0142600D01*
X0136900Y0139905D01*
X0136900Y0136095D01*
X0137193Y0135802D02*
X0136373Y0135802D01*
X0135375Y0134803D02*
X0138191Y0134803D01*
X0139190Y0133805D02*
X0134376Y0133805D01*
X0132000Y0133805D02*
X0131000Y0133805D01*
X0131000Y0134803D02*
X0132000Y0134803D01*
X0132000Y0135802D02*
X0131000Y0135802D01*
X0131000Y0136801D02*
X0132000Y0136801D01*
X0131000Y0137799D02*
X0126100Y0137799D01*
X0126100Y0136801D02*
X0126500Y0136801D01*
X0126100Y0136095D02*
X0123405Y0133400D01*
X0119595Y0133400D01*
X0116900Y0136095D01*
X0116900Y0139905D01*
X0119595Y0142600D01*
X0123405Y0142600D01*
X0126100Y0139905D01*
X0126100Y0136095D01*
X0125807Y0135802D02*
X0126627Y0135802D01*
X0127625Y0134803D02*
X0124809Y0134803D01*
X0123810Y0133805D02*
X0128624Y0133805D01*
X0126500Y0138798D02*
X0126100Y0138798D01*
X0126100Y0139796D02*
X0126500Y0139796D01*
X0127224Y0140795D02*
X0125211Y0140795D01*
X0124212Y0141793D02*
X0128222Y0141793D01*
X0133779Y0142792D02*
X0149221Y0142792D01*
X0149429Y0143000D02*
X0146500Y0140071D01*
X0146500Y0138500D01*
X0151000Y0138500D01*
X0151000Y0143000D01*
X0149429Y0143000D01*
X0151000Y0142792D02*
X0152000Y0142792D01*
X0152000Y0143000D02*
X0153571Y0143000D01*
X0156500Y0140071D01*
X0156500Y0138500D01*
X0152000Y0138500D01*
X0152000Y0137500D01*
X0156500Y0137500D01*
X0156500Y0135929D01*
X0153571Y0133000D01*
X0152000Y0133000D01*
X0152000Y0137500D01*
X0151000Y0137500D01*
X0151000Y0133000D01*
X0149429Y0133000D01*
X0146500Y0135929D01*
X0146500Y0137500D01*
X0151000Y0137500D01*
X0151000Y0138500D01*
X0152000Y0138500D01*
X0152000Y0143000D01*
X0152000Y0141793D02*
X0151000Y0141793D01*
X0151000Y0140795D02*
X0152000Y0140795D01*
X0152000Y0139796D02*
X0151000Y0139796D01*
X0151000Y0138798D02*
X0152000Y0138798D01*
X0152000Y0137799D02*
X0174450Y0137799D01*
X0174450Y0136801D02*
X0156500Y0136801D01*
X0156373Y0135802D02*
X0174450Y0135802D01*
X0174450Y0134803D02*
X0155375Y0134803D01*
X0154376Y0133805D02*
X0174450Y0133805D01*
X0174450Y0132806D02*
X0045100Y0132806D01*
X0045100Y0131808D02*
X0174450Y0131808D01*
X0174450Y0130809D02*
X0045100Y0130809D01*
X0045100Y0129811D02*
X0174450Y0129811D01*
X0174450Y0128812D02*
X0045100Y0128812D01*
X0045100Y0127814D02*
X0174450Y0127814D01*
X0174450Y0126815D02*
X0045100Y0126815D01*
X0045100Y0125817D02*
X0174450Y0125817D01*
X0174450Y0124818D02*
X0045100Y0124818D01*
X0045100Y0123820D02*
X0174450Y0123820D01*
X0174450Y0122821D02*
X0045100Y0122821D01*
X0045100Y0121823D02*
X0174450Y0121823D01*
X0174450Y0120824D02*
X0045100Y0120824D01*
X0045100Y0119826D02*
X0174450Y0119826D01*
X0174450Y0118827D02*
X0045100Y0118827D01*
X0045800Y0117829D02*
X0174450Y0117829D01*
X0174450Y0116830D02*
X0045800Y0116830D01*
X0045584Y0115832D02*
X0174450Y0115832D01*
X0174450Y0114833D02*
X0044586Y0114833D01*
X0043500Y0117000D02*
X0043500Y0139500D01*
X0045800Y0139796D02*
X0096900Y0139796D01*
X0096900Y0139905D02*
X0096900Y0136095D01*
X0099595Y0133400D01*
X0103405Y0133400D01*
X0106100Y0136095D01*
X0106100Y0139905D01*
X0103405Y0142600D01*
X0099595Y0142600D01*
X0096900Y0139905D01*
X0096900Y0138798D02*
X0045800Y0138798D01*
X0045100Y0137799D02*
X0096900Y0137799D01*
X0096900Y0136801D02*
X0045100Y0136801D01*
X0045100Y0135802D02*
X0097193Y0135802D01*
X0098191Y0134803D02*
X0045100Y0134803D01*
X0045100Y0133805D02*
X0099190Y0133805D01*
X0103810Y0133805D02*
X0109190Y0133805D01*
X0109595Y0133400D02*
X0113405Y0133400D01*
X0116100Y0136095D01*
X0116100Y0139905D01*
X0113405Y0142600D01*
X0109595Y0142600D01*
X0106900Y0139905D01*
X0106900Y0136095D01*
X0109595Y0133400D01*
X0108191Y0134803D02*
X0104809Y0134803D01*
X0105807Y0135802D02*
X0107193Y0135802D01*
X0106900Y0136801D02*
X0106100Y0136801D01*
X0106100Y0137799D02*
X0106900Y0137799D01*
X0106900Y0138798D02*
X0106100Y0138798D01*
X0106100Y0139796D02*
X0106900Y0139796D01*
X0107789Y0140795D02*
X0105211Y0140795D01*
X0104212Y0141793D02*
X0108788Y0141793D01*
X0114212Y0141793D02*
X0118788Y0141793D01*
X0117789Y0140795D02*
X0115211Y0140795D01*
X0116100Y0139796D02*
X0116900Y0139796D01*
X0116900Y0138798D02*
X0116100Y0138798D01*
X0116100Y0137799D02*
X0116900Y0137799D01*
X0116900Y0136801D02*
X0116100Y0136801D01*
X0115807Y0135802D02*
X0117193Y0135802D01*
X0118191Y0134803D02*
X0114809Y0134803D01*
X0113810Y0133805D02*
X0119190Y0133805D01*
X0134778Y0141793D02*
X0138788Y0141793D01*
X0137789Y0140795D02*
X0135776Y0140795D01*
X0136500Y0139796D02*
X0136900Y0139796D01*
X0136900Y0138798D02*
X0136500Y0138798D01*
X0144212Y0141793D02*
X0148222Y0141793D01*
X0147224Y0140795D02*
X0145211Y0140795D01*
X0146100Y0139796D02*
X0146500Y0139796D01*
X0146500Y0138798D02*
X0146100Y0138798D01*
X0146100Y0137799D02*
X0151000Y0137799D01*
X0151000Y0136801D02*
X0152000Y0136801D01*
X0152000Y0135802D02*
X0151000Y0135802D01*
X0151000Y0134803D02*
X0152000Y0134803D01*
X0152000Y0133805D02*
X0151000Y0133805D01*
X0148624Y0133805D02*
X0143810Y0133805D01*
X0144809Y0134803D02*
X0147625Y0134803D01*
X0146627Y0135802D02*
X0145807Y0135802D01*
X0146100Y0136801D02*
X0146500Y0136801D01*
X0153779Y0142792D02*
X0174450Y0142792D01*
X0174450Y0143790D02*
X0003050Y0143790D01*
X0003050Y0144789D02*
X0174450Y0144789D01*
X0174450Y0145787D02*
X0003050Y0145787D01*
X0003050Y0146786D02*
X0174450Y0146786D01*
X0174450Y0147784D02*
X0003050Y0147784D01*
X0003050Y0148783D02*
X0174450Y0148783D01*
X0174450Y0149781D02*
X0016540Y0149781D01*
X0017022Y0149981D02*
X0019019Y0151978D01*
X0020100Y0154588D01*
X0020100Y0157412D01*
X0019019Y0160022D01*
X0017022Y0162019D01*
X0014412Y0163100D01*
X0011588Y0163100D01*
X0008978Y0162019D01*
X0006981Y0160022D01*
X0005900Y0157412D01*
X0005900Y0154588D01*
X0006981Y0151978D01*
X0008978Y0149981D01*
X0011588Y0148900D01*
X0014412Y0148900D01*
X0017022Y0149981D01*
X0017821Y0150780D02*
X0161464Y0150780D01*
X0160978Y0150981D02*
X0163588Y0149900D01*
X0166412Y0149900D01*
X0169022Y0150981D01*
X0171019Y0152978D01*
X0172100Y0155588D01*
X0172100Y0158412D01*
X0171019Y0161022D01*
X0169022Y0163019D01*
X0166412Y0164100D01*
X0163588Y0164100D01*
X0160978Y0163019D01*
X0158981Y0161022D01*
X0157900Y0158412D01*
X0157900Y0155588D01*
X0158981Y0152978D01*
X0160978Y0150981D01*
X0160181Y0151778D02*
X0018819Y0151778D01*
X0019350Y0152777D02*
X0159182Y0152777D01*
X0158651Y0153775D02*
X0019763Y0153775D01*
X0020100Y0154774D02*
X0158237Y0154774D01*
X0157900Y0155772D02*
X0020100Y0155772D01*
X0020100Y0156771D02*
X0157900Y0156771D01*
X0157900Y0157769D02*
X0019952Y0157769D01*
X0019539Y0158768D02*
X0158047Y0158768D01*
X0158461Y0159766D02*
X0019125Y0159766D01*
X0018276Y0160765D02*
X0158874Y0160765D01*
X0159722Y0161763D02*
X0017278Y0161763D01*
X0015229Y0162762D02*
X0160721Y0162762D01*
X0162768Y0163760D02*
X0003050Y0163760D01*
X0003050Y0162762D02*
X0010771Y0162762D01*
X0008722Y0161763D02*
X0003050Y0161763D01*
X0003050Y0160765D02*
X0007724Y0160765D01*
X0006875Y0159766D02*
X0003050Y0159766D01*
X0003050Y0158768D02*
X0006461Y0158768D01*
X0006048Y0157769D02*
X0003050Y0157769D01*
X0003050Y0156771D02*
X0005900Y0156771D01*
X0005900Y0155772D02*
X0003050Y0155772D01*
X0003050Y0154774D02*
X0005900Y0154774D01*
X0006237Y0153775D02*
X0003050Y0153775D01*
X0003050Y0152777D02*
X0006650Y0152777D01*
X0007181Y0151778D02*
X0003050Y0151778D01*
X0003050Y0150780D02*
X0008179Y0150780D01*
X0009460Y0149781D02*
X0003050Y0149781D01*
X0003050Y0164759D02*
X0174450Y0164759D01*
X0174450Y0165757D02*
X0003050Y0165757D01*
X0044460Y0141793D02*
X0098788Y0141793D01*
X0097789Y0140795D02*
X0045458Y0140795D01*
X0050350Y0092866D02*
X0025150Y0092866D01*
X0025175Y0092841D02*
X0024530Y0093486D01*
X0018470Y0093486D01*
X0017825Y0092841D01*
X0017825Y0086781D01*
X0018470Y0086136D01*
X0024530Y0086136D01*
X0025175Y0086781D01*
X0025175Y0092841D01*
X0025175Y0091868D02*
X0050325Y0091868D01*
X0050325Y0090869D02*
X0025175Y0090869D01*
X0025175Y0089870D02*
X0050325Y0089870D01*
X0050325Y0088872D02*
X0025175Y0088872D01*
X0025175Y0087873D02*
X0050325Y0087873D01*
X0050325Y0086875D02*
X0025175Y0086875D01*
X0023756Y0084878D02*
X0051744Y0084878D01*
X0050827Y0083879D02*
X0024673Y0083879D01*
X0025087Y0082881D02*
X0050413Y0082881D01*
X0050325Y0081882D02*
X0025175Y0081882D01*
X0025041Y0080884D02*
X0050459Y0080884D01*
X0050872Y0079885D02*
X0024628Y0079885D01*
X0023647Y0078887D02*
X0051853Y0078887D01*
X0051630Y0076890D02*
X0023870Y0076890D01*
X0024720Y0075891D02*
X0050780Y0075891D01*
X0050366Y0074893D02*
X0025134Y0074893D01*
X0025175Y0073894D02*
X0050325Y0073894D01*
X0050506Y0072896D02*
X0024994Y0072896D01*
X0024531Y0071897D02*
X0050969Y0071897D01*
X0052036Y0070899D02*
X0023464Y0070899D01*
X0023064Y0069965D02*
X0023636Y0069674D01*
X0024155Y0069297D01*
X0024608Y0068844D01*
X0024985Y0068325D01*
X0025276Y0067753D01*
X0025474Y0067143D01*
X0025575Y0066510D01*
X0025575Y0066476D01*
X0021787Y0066476D01*
X0021213Y0066476D01*
X0021213Y0065902D01*
X0017425Y0065902D01*
X0017425Y0065868D01*
X0017526Y0065235D01*
X0017724Y0064625D01*
X0018015Y0064053D01*
X0018392Y0063534D01*
X0018845Y0063081D01*
X0019364Y0062704D01*
X0019936Y0062413D01*
X0020546Y0062215D01*
X0021179Y0062114D01*
X0021213Y0062114D01*
X0021213Y0065901D01*
X0021787Y0065901D01*
X0021787Y0062114D01*
X0021821Y0062114D01*
X0022454Y0062215D01*
X0023064Y0062413D01*
X0023636Y0062704D01*
X0024155Y0063081D01*
X0024608Y0063534D01*
X0024985Y0064053D01*
X0025276Y0064625D01*
X0025474Y0065235D01*
X0025575Y0065868D01*
X0025575Y0065902D01*
X0021787Y0065902D01*
X0021787Y0066476D01*
X0021787Y0070264D01*
X0021821Y0070264D01*
X0022454Y0070163D01*
X0023064Y0069965D01*
X0023192Y0069900D02*
X0052308Y0069900D01*
X0053713Y0069900D02*
X0054287Y0069900D01*
X0054287Y0068902D02*
X0053713Y0068902D01*
X0053713Y0067903D02*
X0054287Y0067903D01*
X0054287Y0066905D02*
X0053713Y0066905D01*
X0053713Y0065906D02*
X0021787Y0065906D01*
X0021213Y0065906D02*
X0003050Y0065906D01*
X0003050Y0064908D02*
X0017632Y0064908D01*
X0018120Y0063909D02*
X0003050Y0063909D01*
X0003050Y0062911D02*
X0019080Y0062911D01*
X0021213Y0062911D02*
X0021787Y0062911D01*
X0021787Y0063909D02*
X0021213Y0063909D01*
X0021213Y0064908D02*
X0021787Y0064908D01*
X0021213Y0066476D02*
X0017425Y0066476D01*
X0017425Y0066510D01*
X0017526Y0067143D01*
X0017724Y0067753D01*
X0018015Y0068325D01*
X0018392Y0068844D01*
X0018845Y0069297D01*
X0019364Y0069674D01*
X0019936Y0069965D01*
X0020546Y0070163D01*
X0021179Y0070264D01*
X0021213Y0070264D01*
X0021213Y0066476D01*
X0021213Y0066905D02*
X0021787Y0066905D01*
X0021787Y0067903D02*
X0021213Y0067903D01*
X0021213Y0068902D02*
X0021787Y0068902D01*
X0021787Y0069900D02*
X0021213Y0069900D01*
X0019808Y0069900D02*
X0003050Y0069900D01*
X0003050Y0068902D02*
X0018450Y0068902D01*
X0017800Y0067903D02*
X0003050Y0067903D01*
X0003050Y0066905D02*
X0017488Y0066905D01*
X0019536Y0070899D02*
X0003050Y0070899D01*
X0003050Y0071897D02*
X0018469Y0071897D01*
X0018006Y0072896D02*
X0003050Y0072896D01*
X0003050Y0073894D02*
X0017825Y0073894D01*
X0017866Y0074893D02*
X0003050Y0074893D01*
X0003050Y0075891D02*
X0018280Y0075891D01*
X0024550Y0068902D02*
X0050950Y0068902D01*
X0050300Y0067903D02*
X0025200Y0067903D01*
X0025512Y0066905D02*
X0049988Y0066905D01*
X0050132Y0064908D02*
X0025368Y0064908D01*
X0024880Y0063909D02*
X0050620Y0063909D01*
X0051580Y0062911D02*
X0023920Y0062911D01*
X0017825Y0086875D02*
X0003050Y0086875D01*
X0003050Y0087873D02*
X0017825Y0087873D01*
X0017825Y0088872D02*
X0003050Y0088872D01*
X0003050Y0089870D02*
X0017825Y0089870D01*
X0017825Y0090869D02*
X0003050Y0090869D01*
X0003050Y0091868D02*
X0017825Y0091868D01*
X0017850Y0092866D02*
X0003050Y0092866D01*
X0053713Y0064908D02*
X0054287Y0064908D01*
X0054287Y0065906D02*
X0174450Y0065906D01*
X0174450Y0078887D02*
X0056147Y0078887D01*
X0057128Y0079885D02*
X0174450Y0079885D01*
X0174450Y0080884D02*
X0057541Y0080884D01*
X0057675Y0081882D02*
X0174450Y0081882D01*
X0174450Y0082881D02*
X0057587Y0082881D01*
X0057173Y0083879D02*
X0174450Y0083879D01*
X0174450Y0138798D02*
X0156500Y0138798D01*
X0156500Y0139796D02*
X0174450Y0139796D01*
X0174450Y0140795D02*
X0155776Y0140795D01*
X0154778Y0141793D02*
X0174450Y0141793D01*
X0174450Y0150780D02*
X0168536Y0150780D01*
X0169819Y0151778D02*
X0174450Y0151778D01*
X0174450Y0152777D02*
X0170818Y0152777D01*
X0171349Y0153775D02*
X0174450Y0153775D01*
X0174450Y0154774D02*
X0171763Y0154774D01*
X0172100Y0155772D02*
X0174450Y0155772D01*
X0174450Y0156771D02*
X0172100Y0156771D01*
X0172100Y0157769D02*
X0174450Y0157769D01*
X0174450Y0158768D02*
X0171953Y0158768D01*
X0171539Y0159766D02*
X0174450Y0159766D01*
X0174450Y0160765D02*
X0171126Y0160765D01*
X0170278Y0161763D02*
X0174450Y0161763D01*
X0174450Y0162762D02*
X0169279Y0162762D01*
X0167232Y0163760D02*
X0174450Y0163760D01*
X0054287Y0063909D02*
X0053713Y0063909D01*
X0053713Y0062911D02*
X0054287Y0062911D01*
D16*
X0083500Y0066000D03*
X0128000Y0083000D03*
X0119000Y0159500D03*
X0014000Y0117500D03*
X0010500Y0137500D03*
X0012000Y0036500D03*
D17*
X0050000Y0110500D03*
X0043500Y0117000D03*
X0043500Y0139500D03*
M02*
