G75*
%MOIN*%
%OFA0B0*%
%FSLAX25Y25*%
%IPPOS*%
%LPD*%
%AMOC8*
5,1,8,0,0,1.08239X$1,22.5*
%
%ADD10C,0.00100*%
%ADD11R,0.02565X0.01384*%
%ADD12R,0.04337X0.07093*%
%ADD13OC8,0.07400*%
%ADD14R,0.07900X0.05400*%
%ADD15R,0.05400X0.07900*%
%ADD16R,0.05550X0.05550*%
%ADD17C,0.05550*%
%ADD18C,0.12400*%
D10*
X0001500Y0003000D02*
X0176000Y0003000D01*
X0176000Y0168000D01*
X0001500Y0168000D01*
X0001500Y0003000D01*
D11*
X0046874Y0130047D03*
X0046874Y0132016D03*
X0046874Y0133984D03*
X0046874Y0135953D03*
X0056126Y0135953D03*
X0056126Y0133984D03*
X0056126Y0132016D03*
X0056126Y0130047D03*
D12*
X0051500Y0133000D03*
D13*
X0101500Y0138000D03*
X0111500Y0138000D03*
X0121500Y0138000D03*
X0131500Y0138000D03*
X0141500Y0138000D03*
X0151500Y0138000D03*
D14*
X0090500Y0110500D03*
X0090500Y0097500D03*
X0090500Y0088000D03*
X0090500Y0075000D03*
X0076500Y0075000D03*
X0076500Y0088000D03*
X0076500Y0097500D03*
X0076500Y0110500D03*
X0076500Y0126500D03*
X0066500Y0126500D03*
X0066500Y0139500D03*
X0076500Y0139500D03*
D15*
X0038000Y0138000D03*
X0038000Y0128000D03*
X0025000Y0128000D03*
X0025000Y0138000D03*
D16*
X0021500Y0089811D03*
X0054000Y0089811D03*
D17*
X0054000Y0081937D03*
X0054000Y0074063D03*
X0054000Y0066189D03*
X0021500Y0066189D03*
X0021500Y0074063D03*
X0021500Y0081937D03*
D18*
X0014500Y0016000D03*
X0013000Y0156000D03*
X0165000Y0157000D03*
X0164000Y0015500D03*
M02*
