G75*
%MOIN*%
%OFA0B0*%
%FSLAX25Y25*%
%IPPOS*%
%LPD*%
%AMOC8*
5,1,8,0,0,1.08239X$1,22.5*
%
%ADD10C,0.00100*%
%ADD11C,0.00500*%
%ADD12C,0.00200*%
%ADD13C,0.00300*%
%ADD14C,0.00400*%
%ADD15C,0.00039*%
%ADD16C,0.00984*%
%ADD17C,0.00600*%
%ADD18C,0.01000*%
D10*
X0001500Y0003000D02*
X0176000Y0003000D01*
X0176000Y0168000D01*
X0001500Y0168000D01*
X0001500Y0003000D01*
X0046599Y0139243D02*
X0046599Y0140144D01*
X0046299Y0140144D02*
X0046899Y0140144D01*
X0047219Y0140144D02*
X0047219Y0139243D01*
X0047219Y0139693D02*
X0047820Y0139693D01*
X0047820Y0139243D02*
X0047820Y0140144D01*
D11*
X0041330Y0142662D02*
X0041330Y0133383D01*
X0021527Y0133383D01*
X0021527Y0142662D01*
X0041330Y0142662D01*
X0041500Y0148000D02*
X0021500Y0148000D01*
X0021500Y0118000D01*
X0041500Y0118000D01*
X0041500Y0148000D01*
X0041330Y0132662D02*
X0041330Y0123383D01*
X0021527Y0123383D01*
X0021527Y0132662D01*
X0041330Y0132662D01*
X0061838Y0123027D02*
X0061838Y0142830D01*
X0071117Y0142830D01*
X0071117Y0123027D01*
X0061838Y0123027D01*
X0072038Y0123384D02*
X0080885Y0123346D01*
X0080924Y0142847D01*
X0072076Y0142885D01*
X0072038Y0123384D01*
X0071838Y0113830D02*
X0081117Y0113830D01*
X0081117Y0094027D01*
X0071838Y0094027D01*
X0071838Y0113830D01*
X0085838Y0113830D02*
X0095117Y0113830D01*
X0095117Y0094027D01*
X0085838Y0094027D01*
X0085838Y0113830D01*
X0096500Y0133000D02*
X0096500Y0143000D01*
X0156500Y0143000D01*
X0156500Y0133000D01*
X0096500Y0133000D01*
X0057937Y0097685D02*
X0050063Y0097685D01*
X0071883Y0091473D02*
X0081162Y0091473D01*
X0081162Y0071670D01*
X0071883Y0071670D01*
X0071883Y0091473D01*
X0086020Y0091064D02*
X0094965Y0091079D01*
X0094965Y0071704D01*
X0086020Y0071689D01*
X0086020Y0091064D01*
X0025437Y0097685D02*
X0017563Y0097685D01*
X0019500Y0149500D02*
X0006500Y0149500D01*
X0006500Y0162500D01*
X0019500Y0162500D01*
X0019500Y0149500D01*
X0021000Y0022500D02*
X0008000Y0022500D01*
X0008000Y0009500D01*
X0021000Y0009500D01*
X0021000Y0022500D01*
X0157500Y0022000D02*
X0157500Y0009000D01*
X0170500Y0009000D01*
X0170500Y0022000D01*
X0157500Y0022000D01*
X0158500Y0150500D02*
X0158500Y0163500D01*
X0171500Y0163500D01*
X0171500Y0150500D01*
X0158500Y0150500D01*
D12*
X0029698Y0144201D02*
X0028230Y0144201D01*
X0029331Y0145302D01*
X0029331Y0143100D01*
X0027488Y0144201D02*
X0026020Y0144201D01*
X0027121Y0145302D01*
X0027121Y0143100D01*
X0025278Y0143100D02*
X0023810Y0144568D01*
X0023068Y0144935D02*
X0021600Y0143467D01*
X0021967Y0143100D01*
X0022701Y0143100D01*
X0023068Y0143467D01*
X0023068Y0144935D01*
X0022701Y0145302D01*
X0021967Y0145302D01*
X0021600Y0144935D01*
X0021600Y0143467D01*
X0023810Y0143100D02*
X0025278Y0144568D01*
X0027121Y0122802D02*
X0026020Y0121701D01*
X0027488Y0121701D01*
X0028230Y0121701D02*
X0028964Y0122068D01*
X0029331Y0122068D01*
X0029698Y0121701D01*
X0029698Y0120967D01*
X0029331Y0120600D01*
X0028597Y0120600D01*
X0028230Y0120967D01*
X0028230Y0121701D02*
X0028230Y0122802D01*
X0029698Y0122802D01*
X0027121Y0122802D02*
X0027121Y0120600D01*
X0025278Y0120600D02*
X0023810Y0122068D01*
X0023068Y0122435D02*
X0022701Y0122802D01*
X0021967Y0122802D01*
X0021600Y0122435D01*
X0021600Y0120967D01*
X0023068Y0122435D01*
X0023068Y0120967D01*
X0022701Y0120600D01*
X0021967Y0120600D01*
X0021600Y0120967D01*
X0023810Y0120600D02*
X0025278Y0122068D01*
D13*
X0025333Y0116853D02*
X0027185Y0116853D01*
X0027802Y0116236D01*
X0027802Y0113767D01*
X0027185Y0113150D01*
X0025333Y0113150D01*
X0025333Y0116853D01*
X0024119Y0115619D02*
X0024119Y0113150D01*
X0024119Y0115002D02*
X0021650Y0115002D01*
X0021650Y0115619D02*
X0022884Y0116853D01*
X0024119Y0115619D01*
X0021650Y0115619D02*
X0021650Y0113150D01*
X0029016Y0113150D02*
X0030868Y0113150D01*
X0031485Y0113767D01*
X0031485Y0116236D01*
X0030868Y0116853D01*
X0029016Y0116853D01*
X0029016Y0113150D01*
X0032699Y0113150D02*
X0032699Y0116853D01*
X0034551Y0116853D01*
X0035168Y0116236D01*
X0035168Y0115002D01*
X0034551Y0114384D01*
X0032699Y0114384D01*
X0033934Y0114384D02*
X0035168Y0113150D01*
X0168147Y0056668D02*
X0168147Y0054199D01*
X0168147Y0051751D02*
X0171850Y0051751D01*
X0171850Y0052985D02*
X0171850Y0050516D01*
X0171233Y0049302D02*
X0168764Y0049302D01*
X0171233Y0046833D01*
X0171850Y0047450D01*
X0171850Y0048685D01*
X0171233Y0049302D01*
X0169381Y0050516D02*
X0168147Y0051751D01*
X0168764Y0049302D02*
X0168147Y0048685D01*
X0168147Y0047450D01*
X0168764Y0046833D01*
X0171233Y0046833D01*
X0171850Y0045619D02*
X0171850Y0043150D01*
X0169381Y0045619D01*
X0168764Y0045619D01*
X0168147Y0045002D01*
X0168147Y0043767D01*
X0168764Y0043150D01*
X0171233Y0054199D02*
X0171850Y0054199D01*
X0171233Y0054199D02*
X0168764Y0056668D01*
X0168147Y0056668D01*
D14*
X0163800Y0057779D02*
X0163800Y0060081D01*
X0160731Y0060081D01*
X0161498Y0061616D02*
X0160731Y0062383D01*
X0160731Y0064685D01*
X0162265Y0063918D02*
X0162265Y0062383D01*
X0161498Y0061616D01*
X0162265Y0063918D02*
X0163033Y0064685D01*
X0163800Y0063918D01*
X0163800Y0061616D01*
X0163033Y0066220D02*
X0161498Y0066220D01*
X0160731Y0066987D01*
X0160731Y0068522D01*
X0161498Y0069289D01*
X0162265Y0069289D01*
X0162265Y0066220D01*
X0163033Y0066220D02*
X0163800Y0066987D01*
X0163800Y0068522D01*
X0163800Y0071591D02*
X0159963Y0071591D01*
X0159196Y0072358D01*
X0160731Y0073893D02*
X0163033Y0073893D01*
X0163800Y0074660D01*
X0163800Y0076962D01*
X0160731Y0076962D01*
X0161498Y0078497D02*
X0160731Y0079264D01*
X0160731Y0080799D01*
X0161498Y0081566D01*
X0162265Y0081566D01*
X0162265Y0078497D01*
X0161498Y0078497D02*
X0163033Y0078497D01*
X0163800Y0079264D01*
X0163800Y0080799D01*
X0163033Y0083101D02*
X0159963Y0083101D01*
X0159196Y0083868D01*
X0159196Y0085403D01*
X0159963Y0086170D01*
X0161498Y0086170D01*
X0162265Y0085403D01*
X0160731Y0085403D01*
X0160731Y0083868D01*
X0162265Y0083868D01*
X0162265Y0085403D01*
X0163033Y0086170D02*
X0163800Y0085403D01*
X0163800Y0083868D01*
X0163033Y0083101D01*
X0163033Y0087705D02*
X0161498Y0087705D01*
X0160731Y0088472D01*
X0160731Y0090774D01*
X0164567Y0090774D01*
X0165335Y0090007D01*
X0165335Y0089239D01*
X0163800Y0088472D02*
X0163800Y0090774D01*
X0163800Y0092309D02*
X0160731Y0092309D01*
X0160731Y0093076D01*
X0161498Y0093843D01*
X0160731Y0094610D01*
X0161498Y0095378D01*
X0163800Y0095378D01*
X0163800Y0093843D02*
X0161498Y0093843D01*
X0163033Y0096912D02*
X0162265Y0097680D01*
X0162265Y0099982D01*
X0161498Y0099982D02*
X0163800Y0099982D01*
X0163800Y0097680D01*
X0163033Y0096912D01*
X0160731Y0097680D02*
X0160731Y0099214D01*
X0161498Y0099982D01*
X0160731Y0101516D02*
X0160731Y0102284D01*
X0163800Y0102284D01*
X0163800Y0103051D02*
X0163800Y0101516D01*
X0163800Y0104586D02*
X0163800Y0106120D01*
X0163800Y0105353D02*
X0159196Y0105353D01*
X0159196Y0104586D01*
X0159196Y0102284D02*
X0158429Y0102284D01*
X0163033Y0107655D02*
X0163033Y0108422D01*
X0163800Y0108422D01*
X0163800Y0107655D01*
X0163033Y0107655D01*
X0163033Y0109957D02*
X0161498Y0109957D01*
X0160731Y0110724D01*
X0160731Y0113026D01*
X0161498Y0114561D02*
X0163033Y0114561D01*
X0163800Y0115328D01*
X0163800Y0116863D01*
X0163033Y0117630D01*
X0161498Y0117630D01*
X0160731Y0116863D01*
X0160731Y0115328D01*
X0161498Y0114561D01*
X0163800Y0113026D02*
X0163800Y0110724D01*
X0163033Y0109957D01*
X0163800Y0119165D02*
X0160731Y0119165D01*
X0160731Y0119932D01*
X0161498Y0120699D01*
X0160731Y0121467D01*
X0161498Y0122234D01*
X0163800Y0122234D01*
X0163800Y0120699D02*
X0161498Y0120699D01*
X0163800Y0088472D02*
X0163033Y0087705D01*
X0161498Y0072358D02*
X0161498Y0070824D01*
X0163800Y0057779D02*
X0163033Y0057012D01*
X0160731Y0057012D01*
X0161498Y0055477D02*
X0163800Y0055477D01*
X0161498Y0055477D02*
X0160731Y0054710D01*
X0160731Y0052408D01*
X0163800Y0052408D01*
X0163800Y0050873D02*
X0163800Y0048571D01*
X0163033Y0047804D01*
X0162265Y0048571D01*
X0162265Y0050873D01*
X0161498Y0050873D02*
X0163800Y0050873D01*
X0161498Y0050873D02*
X0160731Y0050106D01*
X0160731Y0048571D01*
X0161498Y0046269D02*
X0163800Y0046269D01*
X0161498Y0046269D02*
X0160731Y0045502D01*
X0160731Y0043200D01*
X0163800Y0043200D01*
X0160957Y0026820D02*
X0160957Y0022683D01*
X0161474Y0023200D02*
X0161991Y0023717D01*
X0161991Y0024234D01*
X0161474Y0024751D01*
X0160440Y0024751D01*
X0159923Y0025268D01*
X0159923Y0025786D01*
X0160440Y0026303D01*
X0161474Y0026303D01*
X0161991Y0025786D01*
X0163145Y0026303D02*
X0163145Y0024751D01*
X0164180Y0025268D01*
X0164697Y0025268D01*
X0165214Y0024751D01*
X0165214Y0023717D01*
X0164697Y0023200D01*
X0163663Y0023200D01*
X0163145Y0023717D01*
X0161474Y0023200D02*
X0160440Y0023200D01*
X0159923Y0023717D01*
X0158768Y0023200D02*
X0156700Y0023200D01*
X0156700Y0026303D01*
X0158768Y0026303D01*
X0157734Y0024751D02*
X0156700Y0024751D01*
X0163145Y0026303D02*
X0165214Y0026303D01*
X0067300Y0082272D02*
X0067300Y0082789D01*
X0066783Y0083306D01*
X0064197Y0083306D01*
X0064197Y0082789D02*
X0064197Y0083823D01*
X0064714Y0084977D02*
X0064197Y0085494D01*
X0064197Y0086529D01*
X0064714Y0087046D01*
X0065232Y0087046D01*
X0067300Y0084977D01*
X0067300Y0087046D01*
X0067300Y0082272D02*
X0066783Y0081755D01*
X0034800Y0082272D02*
X0034800Y0082789D01*
X0034283Y0083306D01*
X0031697Y0083306D01*
X0031697Y0082789D02*
X0031697Y0083823D01*
X0032732Y0084977D02*
X0031697Y0086011D01*
X0034800Y0086011D01*
X0034800Y0084977D02*
X0034800Y0087046D01*
X0034800Y0082272D02*
X0034283Y0081755D01*
X0011457Y0027320D02*
X0011457Y0023183D01*
X0011974Y0023700D02*
X0012491Y0024217D01*
X0012491Y0024734D01*
X0011974Y0025251D01*
X0010940Y0025251D01*
X0010423Y0025768D01*
X0010423Y0026286D01*
X0010940Y0026803D01*
X0011974Y0026803D01*
X0012491Y0026286D01*
X0013645Y0026286D02*
X0014163Y0026803D01*
X0015197Y0026803D01*
X0015714Y0026286D01*
X0015714Y0025768D01*
X0013645Y0023700D01*
X0015714Y0023700D01*
X0011974Y0023700D02*
X0010940Y0023700D01*
X0010423Y0024217D01*
X0009268Y0023700D02*
X0007200Y0023700D01*
X0007200Y0026803D01*
X0009268Y0026803D01*
X0008234Y0025251D02*
X0007200Y0025251D01*
X0099200Y0125700D02*
X0102269Y0125700D01*
X0100735Y0125700D02*
X0100735Y0130304D01*
X0099200Y0128769D01*
X0099002Y0145700D02*
X0097467Y0145700D01*
X0096700Y0146467D01*
X0096700Y0149537D01*
X0097467Y0150304D01*
X0099002Y0150304D01*
X0099769Y0149537D01*
X0101304Y0149537D02*
X0101304Y0146467D01*
X0102071Y0145700D01*
X0103606Y0145700D01*
X0104373Y0146467D01*
X0104373Y0149537D01*
X0103606Y0150304D01*
X0102071Y0150304D01*
X0101304Y0149537D01*
X0099769Y0146467D02*
X0099002Y0145700D01*
X0105908Y0145700D02*
X0108977Y0148769D01*
X0108977Y0149537D01*
X0108210Y0150304D01*
X0106675Y0150304D01*
X0105908Y0149537D01*
X0105908Y0145700D02*
X0108977Y0145700D01*
X0157700Y0164700D02*
X0159768Y0164700D01*
X0160923Y0165217D02*
X0161440Y0164700D01*
X0162474Y0164700D01*
X0162991Y0165217D01*
X0162991Y0165734D01*
X0162474Y0166251D01*
X0161440Y0166251D01*
X0160923Y0166768D01*
X0160923Y0167286D01*
X0161440Y0167803D01*
X0162474Y0167803D01*
X0162991Y0167286D01*
X0164145Y0166768D02*
X0165180Y0167803D01*
X0165180Y0164700D01*
X0166214Y0164700D02*
X0164145Y0164700D01*
X0161957Y0164183D02*
X0161957Y0168320D01*
X0159768Y0167803D02*
X0157700Y0167803D01*
X0157700Y0164700D01*
X0157700Y0166251D02*
X0158734Y0166251D01*
X0014214Y0165251D02*
X0012145Y0165251D01*
X0013697Y0166803D01*
X0013697Y0163700D01*
X0010991Y0164217D02*
X0010991Y0164734D01*
X0010474Y0165251D01*
X0009440Y0165251D01*
X0008923Y0165768D01*
X0008923Y0166286D01*
X0009440Y0166803D01*
X0010474Y0166803D01*
X0010991Y0166286D01*
X0009957Y0167320D02*
X0009957Y0163183D01*
X0010474Y0163700D02*
X0010991Y0164217D01*
X0010474Y0163700D02*
X0009440Y0163700D01*
X0008923Y0164217D01*
X0007768Y0163700D02*
X0005700Y0163700D01*
X0005700Y0166803D01*
X0007768Y0166803D01*
X0006734Y0165251D02*
X0005700Y0165251D01*
D15*
X0044807Y0138906D02*
X0044807Y0127094D01*
X0058193Y0127094D01*
X0058193Y0138906D01*
X0044807Y0138906D01*
D16*
X0043823Y0135953D03*
D17*
X0037484Y0129722D02*
X0035215Y0129722D01*
X0036917Y0131423D01*
X0036917Y0128020D01*
X0033801Y0128020D02*
X0032666Y0129155D01*
X0033234Y0129155D02*
X0031532Y0129155D01*
X0031532Y0128020D02*
X0031532Y0131423D01*
X0033234Y0131423D01*
X0033801Y0130856D01*
X0033801Y0129722D01*
X0033234Y0129155D01*
X0033234Y0121423D02*
X0031532Y0121423D01*
X0031532Y0118020D01*
X0031532Y0119155D02*
X0033234Y0119155D01*
X0033801Y0119722D01*
X0033801Y0120856D01*
X0033234Y0121423D01*
X0035215Y0121423D02*
X0035215Y0119722D01*
X0036350Y0120289D01*
X0036917Y0120289D01*
X0037484Y0119722D01*
X0037484Y0118588D01*
X0036917Y0118020D01*
X0035782Y0118020D01*
X0035215Y0118588D01*
X0033801Y0118020D02*
X0032666Y0119155D01*
X0035215Y0121423D02*
X0037484Y0121423D01*
X0067797Y0126867D02*
X0068364Y0126300D01*
X0070633Y0126300D01*
X0071200Y0126867D01*
X0071200Y0128001D01*
X0070633Y0128569D01*
X0071200Y0129983D02*
X0071200Y0132252D01*
X0071200Y0131117D02*
X0067797Y0131117D01*
X0068931Y0129983D01*
X0068364Y0128569D02*
X0067797Y0128001D01*
X0067797Y0126867D01*
X0073077Y0133032D02*
X0073077Y0134734D01*
X0073644Y0135301D01*
X0074778Y0135301D01*
X0075345Y0134734D01*
X0075345Y0133032D01*
X0075345Y0134166D02*
X0076480Y0135301D01*
X0075912Y0136715D02*
X0076480Y0137282D01*
X0076480Y0138417D01*
X0075912Y0138984D01*
X0075345Y0138984D01*
X0074778Y0138417D01*
X0074778Y0137850D01*
X0074778Y0138417D02*
X0074211Y0138984D01*
X0073644Y0138984D01*
X0073077Y0138417D01*
X0073077Y0137282D01*
X0073644Y0136715D01*
X0073077Y0133032D02*
X0076480Y0133032D01*
X0086480Y0109984D02*
X0086480Y0107715D01*
X0086480Y0108850D02*
X0083077Y0108850D01*
X0084211Y0107715D01*
X0084778Y0106301D02*
X0085345Y0105734D01*
X0085345Y0104032D01*
X0085345Y0105166D02*
X0086480Y0106301D01*
X0084778Y0106301D02*
X0083644Y0106301D01*
X0083077Y0105734D01*
X0083077Y0104032D01*
X0086480Y0104032D01*
X0097077Y0104032D02*
X0097077Y0105734D01*
X0097644Y0106301D01*
X0098778Y0106301D01*
X0099345Y0105734D01*
X0099345Y0104032D01*
X0099345Y0105166D02*
X0100480Y0106301D01*
X0100480Y0107715D02*
X0098211Y0109984D01*
X0097644Y0109984D01*
X0097077Y0109417D01*
X0097077Y0108282D01*
X0097644Y0107715D01*
X0100480Y0107715D02*
X0100480Y0109984D01*
X0100480Y0104032D02*
X0097077Y0104032D01*
X0084633Y0084435D02*
X0082364Y0084435D01*
X0081797Y0083868D01*
X0081797Y0082166D01*
X0085200Y0082166D01*
X0085200Y0083868D01*
X0084633Y0084435D01*
X0085200Y0080752D02*
X0085200Y0078483D01*
X0081797Y0078483D01*
X0081797Y0080752D01*
X0083499Y0079617D02*
X0083499Y0078483D01*
X0085200Y0077069D02*
X0085200Y0074800D01*
X0081797Y0074800D01*
X0069920Y0074702D02*
X0066518Y0074702D01*
X0066518Y0076403D01*
X0067085Y0076970D01*
X0068219Y0076970D01*
X0068786Y0076403D01*
X0068786Y0074702D01*
X0068786Y0075836D02*
X0069920Y0076970D01*
X0069353Y0078385D02*
X0068219Y0078385D01*
X0068219Y0080086D01*
X0068786Y0080653D01*
X0069353Y0080653D01*
X0069920Y0080086D01*
X0069920Y0078952D01*
X0069353Y0078385D01*
X0068219Y0078385D02*
X0067085Y0079519D01*
X0066518Y0080653D01*
D18*
X0062661Y0097685D02*
X0062661Y0058315D01*
X0045339Y0058315D01*
X0042976Y0058315D01*
X0042976Y0065402D01*
X0045339Y0065402D01*
X0045339Y0090598D01*
X0042976Y0090598D01*
X0042976Y0097685D01*
X0045339Y0097685D01*
X0045339Y0090598D01*
X0045339Y0097685D02*
X0062661Y0097685D01*
X0030161Y0097685D02*
X0030161Y0058315D01*
X0012839Y0058315D01*
X0010476Y0058315D01*
X0010476Y0065402D01*
X0012839Y0065402D01*
X0012839Y0090598D01*
X0010476Y0090598D01*
X0010476Y0097685D01*
X0012839Y0097685D01*
X0012839Y0090598D01*
X0012839Y0097685D02*
X0030161Y0097685D01*
X0045339Y0065402D02*
X0045339Y0058315D01*
X0048094Y0058315D02*
X0059906Y0058315D01*
X0027406Y0058315D02*
X0015594Y0058315D01*
X0012839Y0058315D02*
X0012839Y0065402D01*
M02*
