999
dxflib 3.12.2.0
  0
SECTION
  2
HEADER
  9
$ACADVER
  1
AC1015
  9
$HANDSEED
  5
FFFF
  9
$ANGBASE
 50
0.0
  9
$ATTMODE
 70
1
  9
$AUNITS
 70
0
  9
$AUPREC
 70
0
  9
$CELTSCALE
 40
1.0
  9
$CHAMFERA
 40
0.0
  9
$CHAMFERB
 40
0.0
  9
$CHAMFERC
 40
0.0
  9
$CHAMFERD
 40
0.0
  9
$CMLJUST
 70
0
  9
$CMLSCALE
 40
1.0
  9
$DIMADEC
 70
0
  9
$DIMALTD
 70
2
  9
$DIMALTF
 40
25.3999999999999986
  9
$DIMALTRND
 40
0.0
  9
$DIMALTTD
 70
2
  9
$DIMALTTZ
 70
0
  9
$DIMALTU
 70
2
  9
$DIMALTZ
 70
0
  9
$DIMAPOST
  1

  9
$DIMASZ
 40
2.5
  9
$DIMATFIT
 70
3
  9
$DIMAUNIT
 70
0
  9
$DIMAZIN
 70
2
  9
$DIMCEN
 40
0.09
  9
$DIMDEC
 70
4
  9
$DIMDLE
 40
0.0
  9
$DIMDLI
 40
0.38
  9
$DIMDSEP
 70
46
  9
$DIMEXE
 40
1.25
  9
$DIMEXO
 40
0.625
  9
$DIMFRAC
 70
0
  9
$DIMGAP
 40
0.625
  9
$DIMJUST
 70
0
  9
$DIMLFAC
 40
1.0
  9
$DIMLUNIT
 70
2
  9
$DIMLWD
 70
-2
  9
$DIMLWE
 70
-2
  9
$DIMPOST
  1

  9
$DIMRND
 40
0.0
  9
$DIMSCALE
 40
1.0
  9
$DIMTAD
 70
0
  9
$DIMTDEC
 70
4
  9
$DIMTFAC
 40
1.0
  9
$DIMTM
 40
0.0
  9
$DIMTOLJ
 70
1
  9
$DIMTP
 40
0.0
  9
$DIMTSZ
 40
0.0
  9
$DIMTVP
 40
0.0
  9
$DIMTXT
 40
2.5
  9
$DIMTZIN
 70
0
  9
$DIMZIN
 70
8
  9
$DWGCODEPAGE
  3
ANSI_1252
  9
$ELEVATION
 40
0.0
  9
$EXTMAX
 10
-100000000000000000000.0
 20
-100000000000000000000.0
 30
-100000000000000000000.0
  9
$EXTMIN
 10
100000000000000000000.0
 20
100000000000000000000.0
 30
100000000000000000000.0
  9
$FILLETRAD
 40
0.5
  9
$INSBASE
 10
0.0
 20
0.0
 30
0.0
  9
$INSUNITS
 70
4
  9
$LIMMAX
 10
12.0
 20
9.0
  9
$LIMMIN
 10
0.0
 20
0.0
  9
$LTSCALE
 40
1.0
  9
$LUNITS
 70
2
  9
$LUPREC
 70
4
  9
$MAXACTVP
 70
2
  9
$MEASUREMENT
 70
1
  9
$PDMODE
 70
0
  9
$PDSIZE
 40
0.0
  9
$PELEVATION
 40
0.0
  9
$PEXTMAX
 10
-100000000000000000000.0
 20
-100000000000000000000.0
 30
-100000000000000000000.0
  9
$PEXTMIN
 10
100000000000000000000.0
 20
100000000000000000000.0
 30
100000000000000000000.0
  9
$PINSBASE
 10
0.0
 20
0.0
 30
0.0
  9
$PLIMMAX
 10
277.0
 20
202.5
  9
$PLIMMIN
 10
-20.0
 20
-7.5
  9
$PLINEWID
 40
0.0
  9
$PROXYGRAPHICS
 70
1
  9
$PUCSORG
 10
0.0
 20
0.0
 30
0.0
  9
$PUCSXDIR
 10
1.0
 20
0.0
 30
0.0
  9
$PUCSYDIR
 10
0.0
 20
1.0
 30
0.0
  9
$SHADEDGE
 70
3
  9
$SHADEDIF
 70
70
  9
$SKETCHINC
 40
0.1
  9
$SPLINESEGS
 70
8
  9
$SPLINETYPE
 70
6
  9
$SURFTAB1
 70
6
  9
$SURFTAB2
 70
6
  9
$SURFTYPE
 70
6
  9
$SURFU
 70
6
  9
$SURFV
 70
6
  9
$TEXTSIZE
 40
2.5
  9
$THICKNESS
 40
0.0
  9
$TRACEWID
 40
0.05
  9
$TREEDEPTH
 70
3020
  9
$UCSORG
 10
0.0
 20
0.0
 30
0.0
  9
$UCSXDIR
 10
1.0
 20
0.0
 30
0.0
  9
$UCSYDIR
 10
0.0
 20
1.0
 30
0.0
  9
$UNITMODE
 70
0
  9
$USERI1
 70
0
  9
$USERI2
 70
0
  9
$USERI3
 70
0
  9
$USERI4
 70
0
  9
$USERI5
 70
0
  9
$USERR1
 40
0.0
  9
$USERR2
 40
0.0
  9
$USERR3
 40
0.0
  9
$USERR4
 40
0.0
  9
$USERR5
 40
0.0
  0
ENDSEC
  0
SECTION
  2
TABLES
  0
TABLE
  2
VPORT
  5
8
100
AcDbSymbolTable
 70
1
  0
VPORT
  5
30
100
AcDbSymbolTableRecord
100
AcDbViewportTableRecord
  2
*Active
 70
0
 10
0.0
 20
0.0
 11
1.0
 21
1.0
 12
286.3055555555554861
 22
148.5
 13
0.0
 23
0.0
 14
10.0
 24
10.0
 15
10.0
 25
10.0
 16
0.0
 26
0.0
 36
1.0
 17
0.0
 27
0.0
 37
0.0
 40
297.0
 41
1.92798353909465
 42
50.0
 43
0.0
 44
0.0
 50
0.0
 51
0.0
 71
0
 72
100
 73
1
 74
3
 75
1
 76
1
 77
0
 78
0
281
0
 65
1
110
0.0
120
0.0
130
0.0
111
1.0
121
0.0
131
0.0
112
0.0
122
1.0
132
0.0
 79
0
146
0.0
  0
ENDTAB
  0
TABLE
  2
LTYPE
  5
5
100
AcDbSymbolTable
 70
50
  0
LTYPE
  5
16
100
AcDbSymbolTableRecord
100
AcDbLinetypeTableRecord
  2
Continuous
 70
0
  3
Solid line
 72
65
 73
0
 40
0.0
  0
LTYPE
  5
31
100
AcDbSymbolTableRecord
100
AcDbLinetypeTableRecord
  2
TRACKS
 70
0
  3
Tracks -|-|-|-|-|-|-|-|-|-|-|-|-|-|-|-|-|-|-|-|-|-|-|-|-
 72
65
 73
2
 40
7.6200000000000001
 49
3.8100000000000001
 74
0
 49
3.8100000000000001
 74
0
  0
LTYPE
  5
32
100
AcDbSymbolTableRecord
100
AcDbLinetypeTableRecord
  2
ACAD_ISO05W100
 70
0
  3
ISO long-dash double-dot ____ .. ____ .. ____ . 
 72
65
 73
6
 40
33.0
 49
24.0
 74
0
 49
-3.0
 74
0
 49
0.0
 74
0
 49
-3.0
 74
0
 49
0.0
 74
0
 49
-3.0
 74
0
  0
LTYPE
  5
33
100
AcDbSymbolTableRecord
100
AcDbLinetypeTableRecord
  2
DRAINAGE
 70
0
  3
Drainage ---->---->---->----
 72
65
 73
2
 40
10.1600000000000001
 49
5.0800000000000001
 74
0
 49
5.0800000000000001
 74
0
  0
LTYPE
  5
34
100
AcDbSymbolTableRecord
100
AcDbLinetypeTableRecord
  2
ACAD_ISO11W100
 70
0
  3
ISO double-dash dot __ __ . __ __ . __ __ . __ _
 72
65
 73
6
 40
33.0
 49
12.0
 74
0
 49
-3.0
 74
0
 49
12.0
 74
0
 49
-3.0
 74
0
 49
0.0
 74
0
 49
-3.0
 74
0
  0
LTYPE
  5
35
100
AcDbSymbolTableRecord
100
AcDbLinetypeTableRecord
  2
ACAD_ISO04W100
 70
0
  3
ISO long-dash dot ____ . ____ . ____ . ____ . _
 72
65
 73
4
 40
30.0
 49
24.0
 74
0
 49
-3.0
 74
0
 49
0.0
 74
0
 49
-3.0
 74
0
  0
LTYPE
  5
36
100
AcDbSymbolTableRecord
100
AcDbLinetypeTableRecord
  2
DIVIDE
 70
0
  3
Divide ____ . . ____ . . ____ . . ____ . . ____
 72
65
 73
6
 40
31.75
 49
12.6999999999999993
 74
0
 49
-6.3499999999999996
 74
0
 49
0.0
 74
0
 49
-6.3499999999999996
 74
0
 49
0.0
 74
0
 49
-6.3499999999999996
 74
0
  0
LTYPE
  5
37
100
AcDbSymbolTableRecord
100
AcDbLinetypeTableRecord
  2
FENCELINE2
 70
0
  3
Fenceline square ----[]-----[]----[]-----[]----[]---
 72
65
 73
4
 40
36.8299999999999983
 49
6.3499999999999996
 74
0
 49
-2.54
 74
0
 49
-2.54
 74
0
 49
25.3999999999999986
 74
0
  0
LTYPE
  5
38
100
AcDbSymbolTableRecord
100
AcDbLinetypeTableRecord
  2
ACAD_ISO06W100
 70
0
  3
ISO long-dash triple-dot ____ ... ____ ... ____
 72
65
 73
8
 40
36.0
 49
24.0
 74
0
 49
-3.0
 74
0
 49
0.0
 74
0
 49
-3.0
 74
0
 49
0.0
 74
0
 49
-3.0
 74
0
 49
0.0
 74
0
 49
-3.0
 74
0
  0
LTYPE
  5
39
100
AcDbSymbolTableRecord
100
AcDbLinetypeTableRecord
  2
ACAD_ISO13W100
 70
0
  3
ISO double-dash double-dot __ __ . . __ __ . . _
 72
65
 73
8
 40
36.0
 49
12.0
 74
0
 49
-3.0
 74
0
 49
12.0
 74
0
 49
-3.0
 74
0
 49
0.0
 74
0
 49
-3.0
 74
0
 49
0.0
 74
0
 49
-3.0
 74
0
  0
LTYPE
  5
3A
100
AcDbSymbolTableRecord
100
AcDbLinetypeTableRecord
  2
ACAD_ISO07W100
 70
0
  3
ISO dot . . . . . . . . . . . . . . . . . . . . 
 72
65
 73
2
 40
3.0
 49
0.0
 74
0
 49
-3.0
 74
0
  0
LTYPE
  5
3B
100
AcDbSymbolTableRecord
100
AcDbLinetypeTableRecord
  2
DOTX2
 70
0
  3
Dot (2x) .  .  .  .  .  .  .  .  .  .  .  .  .  .
 72
65
 73
2
 40
12.6999999999999993
 49
0.0
 74
0
 49
-12.6999999999999993
 74
0
  0
LTYPE
  5
3C
100
AcDbSymbolTableRecord
100
AcDbLinetypeTableRecord
  2
ZIGZAG
 70
0
  3
Zig zag /\/\/\/\/\/\/\/\/\/\/\/\/\/\/\/\/\/\/\/\/\/\/\/
 72
65
 73
4
 40
20.32254
 49
0.00254
 74
0
 49
-5.0800000000000001
 74
0
 49
-10.1600000000000001
 74
0
 49
-5.0800000000000001
 74
0
  0
LTYPE
  5
3D
100
AcDbSymbolTableRecord
100
AcDbLinetypeTableRecord
  2
DASHED2
 70
0
  3
Dashed (.5x) _ _ _ _ _ _ _ _ _ _ _ _ _ _ _ _ _ 
 72
65
 73
2
 40
9.5249999999999986
 49
6.3499999999999996
 74
0
 49
-3.1749999999999998
 74
0
  0
LTYPE
  5
3E
100
AcDbSymbolTableRecord
100
AcDbLinetypeTableRecord
  2
FENCELINE1
 70
0
  3
Fenceline circle ----0-----0----0-----0----0-----0--
 72
65
 73
4
 40
36.8299999999999983
 49
6.3499999999999996
 74
0
 49
-2.54
 74
0
 49
-2.54
 74
0
 49
25.3999999999999986
 74
0
  0
LTYPE
  5
3F
100
AcDbSymbolTableRecord
100
AcDbLinetypeTableRecord
  2
GAS_LINE
 70
0
  3
Gas line ----GAS----GAS----GAS----GAS----GAS----GAS--
 72
65
 73
3
 40
24.1300000000000026
 49
12.6999999999999993
 74
0
 49
-5.0800000000000001
 74
0
 49
-6.3499999999999996
 74
0
  0
LTYPE
  5
40
100
AcDbSymbolTableRecord
100
AcDbLinetypeTableRecord
  2
HIDDEN
 70
0
  3
Hidden __ __ __ __ __ __ __ __ __ __ __ __ __ __
 72
65
 73
2
 40
9.5249999999999986
 49
6.3499999999999996
 74
0
 49
-3.1749999999999998
 74
0
  0
LTYPE
  5
41
100
AcDbSymbolTableRecord
100
AcDbLinetypeTableRecord
  2
ACAD_ISO15W100
 70
0
  3
ISO double-dash triple-dot __ __ . . . __ __ . .
 72
65
 73
10
 40
39.0
 49
12.0
 74
0
 49
-3.0
 74
0
 49
12.0
 74
0
 49
-3.0
 74
0
 49
0.0
 74
0
 49
-3.0
 74
0
 49
0.0
 74
0
 49
-3.0
 74
0
 49
0.0
 74
0
 49
-3.0
 74
0
  0
LTYPE
  5
42
100
AcDbSymbolTableRecord
100
AcDbLinetypeTableRecord
  2
HIDDENX2
 70
0
  3
Hidden (2x) ____ ____ ____ ____ ____ ____ ____ 
 72
65
 73
2
 40
19.0499999999999972
 49
12.6999999999999993
 74
0
 49
-6.3499999999999996
 74
0
  0
LTYPE
  5
43
100
AcDbSymbolTableRecord
100
AcDbLinetypeTableRecord
  2
PHANTOM
 70
0
  3
Phantom ______  __  __  ______  __  __  ______ 
 72
65
 73
6
 40
63.5000000000000071
 49
31.75
 74
0
 49
-6.3499999999999996
 74
0
 49
6.3499999999999996
 74
0
 49
-6.3499999999999996
 74
0
 49
6.3499999999999996
 74
0
 49
-6.3499999999999996
 74
0
  0
LTYPE
  5
44
100
AcDbSymbolTableRecord
100
AcDbLinetypeTableRecord
  2
BORDER
 70
0
  3
Border __ __ . __ __ . __ __ . __ __ . __ __ .
 72
65
 73
6
 40
44.4499999999999957
 49
12.6999999999999993
 74
0
 49
-6.3499999999999996
 74
0
 49
12.6999999999999993
 74
0
 49
-6.3499999999999996
 74
0
 49
0.0
 74
0
 49
-6.3499999999999996
 74
0
  0
LTYPE
  5
45
100
AcDbSymbolTableRecord
100
AcDbLinetypeTableRecord
  2
ACAD_ISO14W100
 70
0
  3
ISO dash triple-dot __ . . . __ . . . __ . . . _
 72
65
 73
8
 40
24.0
 49
12.0
 74
0
 49
-3.0
 74
0
 49
0.0
 74
0
 49
-3.0
 74
0
 49
0.0
 74
0
 49
-3.0
 74
0
 49
0.0
 74
0
 49
-3.0
 74
0
  0
LTYPE
  5
46
100
AcDbSymbolTableRecord
100
AcDbLinetypeTableRecord
  2
PHANTOM2
 70
0
  3
Phantom (.5x) ___ _ _ ___ _ _ ___ _ _ ___ _ _
 72
65
 73
6
 40
31.7500000000000036
 49
15.875
 74
0
 49
-3.1749999999999998
 74
0
 49
3.1749999999999998
 74
0
 49
-3.1749999999999998
 74
0
 49
3.1749999999999998
 74
0
 49
-3.1749999999999998
 74
0
  0
LTYPE
  5
47
100
AcDbSymbolTableRecord
100
AcDbLinetypeTableRecord
  2
DIVIDE2
 70
0
  3
Divide (.5x) __..__..__..__..__..__..__..__.._
 72
65
 73
6
 40
15.875
 49
6.3499999999999996
 74
0
 49
-3.1749999999999998
 74
0
 49
0.0
 74
0
 49
-3.1749999999999998
 74
0
 49
0.0
 74
0
 49
-3.1749999999999998
 74
0
  0
LTYPE
  5
48
100
AcDbSymbolTableRecord
100
AcDbLinetypeTableRecord
  2
DIVIDEX2
 70
0
  3
Divide (2x) ________  .  .  ________  .  .  _
 72
65
 73
6
 40
63.5
 49
25.3999999999999986
 74
0
 49
-12.6999999999999993
 74
0
 49
0.0
 74
0
 49
-12.6999999999999993
 74
0
 49
0.0
 74
0
 49
-12.6999999999999993
 74
0
  0
LTYPE
  5
49
100
AcDbSymbolTableRecord
100
AcDbLinetypeTableRecord
  2
ACAD_ISO10W100
 70
0
  3
ISO dash dot __ . __ . __ . __ . __ . __ . __ . 
 72
65
 73
4
 40
18.0
 49
12.0
 74
0
 49
-3.0
 74
0
 49
0.0
 74
0
 49
-3.0
 74
0
  0
LTYPE
  5
4A
100
AcDbSymbolTableRecord
100
AcDbLinetypeTableRecord
  2
HIDDEN2
 70
0
  3
Hidden (.5x) _ _ _ _ _ _ _ _ _ _ _ _ _ _ _ _ _ 
 72
65
 73
2
 40
4.7624999999999993
 49
3.1749999999999998
 74
0
 49
-1.5874999999999999
 74
0
  0
LTYPE
  5
4B
100
AcDbSymbolTableRecord
100
AcDbLinetypeTableRecord
  2
DASHDOT
 70
0
  3
Dash dot __ . __ . __ . __ . __ . __ . __ . __
 72
65
 73
4
 40
25.3999999999999986
 49
12.6999999999999993
 74
0
 49
-6.3499999999999996
 74
0
 49
0.0
 74
0
 49
-6.3499999999999996
 74
0
  0
LTYPE
  5
4C
100
AcDbSymbolTableRecord
100
AcDbLinetypeTableRecord
  2
CENTER
 70
0
  3
Center ____ _ ____ _ ____ _ ____ _ ____ _ ____
 72
65
 73
4
 40
50.8000000000000043
 49
31.75
 74
0
 49
-6.3499999999999996
 74
0
 49
6.3499999999999996
 74
0
 49
-6.3499999999999996
 74
0
  0
LTYPE
  5
4D
100
AcDbSymbolTableRecord
100
AcDbLinetypeTableRecord
  2
BATTING
 70
0
  3
Batting SSSSSSSSSSSSSSSSSSSSSSSSSSSSSSSSSSSSSSSSSSSSSSS
 72
65
 73
4
 40
10.1625399999999999
 49
0.00254
 74
0
 49
-2.54
 74
0
 49
-5.0800000000000001
 74
0
 49
-2.54
 74
0
  0
LTYPE
  5
4E
100
AcDbSymbolTableRecord
100
AcDbLinetypeTableRecord
  2
PHANTOMX2
 70
0
  3
Phantom (2x) ____________    ____    ____   _
 72
65
 73
6
 40
127.0000000000000142
 49
63.5
 74
0
 49
-12.6999999999999993
 74
0
 49
12.6999999999999993
 74
0
 49
-12.6999999999999993
 74
0
 49
12.6999999999999993
 74
0
 49
-12.6999999999999993
 74
0
  0
LTYPE
  5
4F
100
AcDbSymbolTableRecord
100
AcDbLinetypeTableRecord
  2
CENTER2
 70
0
  3
Center (.5x) ___ _ ___ _ ___ _ ___ _ ___ _ ___
 72
65
 73
4
 40
28.5750000000000028
 49
19.0500000000000007
 74
0
 49
-3.1749999999999998
 74
0
 49
3.1749999999999998
 74
0
 49
-3.1749999999999998
 74
0
  0
LTYPE
  5
50
100
AcDbSymbolTableRecord
100
AcDbLinetypeTableRecord
  2
ACAD_ISO12W100
 70
0
  3
ISO dash double-dot __ . . __ . . __ . . __ . . 
 72
65
 73
6
 40
21.0
 49
12.0
 74
0
 49
-3.0
 74
0
 49
0.0
 74
0
 49
-3.0
 74
0
 49
0.0
 74
0
 49
-3.0
 74
0
  0
LTYPE
  5
51
100
AcDbSymbolTableRecord
100
AcDbLinetypeTableRecord
  2
ACAD_ISO02W100
 70
0
  3
ISO dash __ __ __ __ __ __ __ __ __ __ __ __ __
 72
65
 73
2
 40
15.0
 49
12.0
 74
0
 49
-3.0
 74
0
  0
LTYPE
  5
52
100
AcDbSymbolTableRecord
100
AcDbLinetypeTableRecord
  2
DRAINAGE2
 70
0
  3
Drainage reversed----<----<----<----
 72
65
 73
2
 40
10.1600000000000001
 49
5.0800000000000001
 74
0
 49
5.0800000000000001
 74
0
  0
LTYPE
  5
53
100
AcDbSymbolTableRecord
100
AcDbLinetypeTableRecord
  2
BORDERX2
 70
0
  3
Border (2x) ____  ____  .  ____  ____  .  ___
 72
65
 73
6
 40
88.8999999999999915
 49
25.3999999999999986
 74
0
 49
-12.6999999999999993
 74
0
 49
25.3999999999999986
 74
0
 49
-12.6999999999999993
 74
0
 49
0.0
 74
0
 49
-12.6999999999999993
 74
0
  0
LTYPE
  5
54
100
AcDbSymbolTableRecord
100
AcDbLinetypeTableRecord
  2
CENTERX2
 70
0
  3
Center (2x) ________  __  ________  __  _____
 72
65
 73
4
 40
101.6000000000000085
 49
63.5
 74
0
 49
-12.6999999999999993
 74
0
 49
12.6999999999999993
 74
0
 49
-12.6999999999999993
 74
0
  0
LTYPE
  5
55
100
AcDbSymbolTableRecord
100
AcDbLinetypeTableRecord
  2
ACAD_ISO03W100
 70
0
  3
ISO dash space __    __    __    __    __    __
 72
65
 73
2
 40
30.0
 49
12.0
 74
0
 49
-18.0
 74
0
  0
LTYPE
  5
56
100
AcDbSymbolTableRecord
100
AcDbLinetypeTableRecord
  2
DASHDOTX2
 70
0
  3
Dash dot (2x) ____  .  ____  .  ____  .  ___
 72
65
 73
4
 40
50.7999999999999972
 49
25.3999999999999986
 74
0
 49
-12.6999999999999993
 74
0
 49
0.0
 74
0
 49
-12.6999999999999993
 74
0
  0
LTYPE
  5
15
100
AcDbSymbolTableRecord
100
AcDbLinetypeTableRecord
  2
ByLayer
 70
0
  3

 72
65
 73
0
 40
0.0
  0
LTYPE
  5
57
100
AcDbSymbolTableRecord
100
AcDbLinetypeTableRecord
  2
DASHDOT2
 70
0
  3
Dash dot (.5x) _._._._._._._._._._._._._._._.
 72
65
 73
4
 40
12.6999999999999993
 49
6.3499999999999996
 74
0
 49
-3.1749999999999998
 74
0
 49
0.0
 74
0
 49
-3.1749999999999998
 74
0
  0
LTYPE
  5
58
100
AcDbSymbolTableRecord
100
AcDbLinetypeTableRecord
  2
ACAD_ISO08W100
 70
0
  3
ISO long-dash short-dash ____ __ ____ __ ____ _
 72
65
 73
4
 40
36.0
 49
24.0
 74
0
 49
-3.0
 74
0
 49
6.0
 74
0
 49
-3.0
 74
0
  0
LTYPE
  5
59
100
AcDbSymbolTableRecord
100
AcDbLinetypeTableRecord
  2
ACAD_ISO09W100
 70
0
  3
ISO long-dash double-short-dash ____ __ __ ____
 72
65
 73
6
 40
45.0
 49
24.0
 74
0
 49
-3.0
 74
0
 49
6.0
 74
0
 49
-3.0
 74
0
 49
6.0
 74
0
 49
-3.0
 74
0
  0
LTYPE
  5
5A
100
AcDbSymbolTableRecord
100
AcDbLinetypeTableRecord
  2
HOT_WATER_SUPPLY
 70
0
  3
Hot water supply ---- HW ---- HW ---- HW ----
 72
65
 73
3
 40
22.8599999999999994
 49
12.6999999999999993
 74
0
 49
-5.0800000000000001
 74
0
 49
-5.0800000000000001
 74
0
  0
LTYPE
  5
14
100
AcDbSymbolTableRecord
100
AcDbLinetypeTableRecord
  2
ByBlock
 70
0
  3

 72
65
 73
0
 40
0.0
  0
LTYPE
  5
5B
100
AcDbSymbolTableRecord
100
AcDbLinetypeTableRecord
  2
DASHED
 70
0
  3
Dashed __ __ __ __ __ __ __ __ __ __ __ __ __ _
 72
65
 73
2
 40
19.0499999999999972
 49
12.6999999999999993
 74
0
 49
-6.3499999999999996
 74
0
  0
LTYPE
  5
5C
100
AcDbSymbolTableRecord
100
AcDbLinetypeTableRecord
  2
BORDER2
 70
0
  3
Border (.5x) __.__.__.__.__.__.__.__.__.__.__.
 72
65
 73
6
 40
22.2249999999999979
 49
6.3499999999999996
 74
0
 49
-3.1749999999999998
 74
0
 49
6.3499999999999996
 74
0
 49
-3.1749999999999998
 74
0
 49
0.0
 74
0
 49
-3.1749999999999998
 74
0
  0
LTYPE
  5
5D
100
AcDbSymbolTableRecord
100
AcDbLinetypeTableRecord
  2
DOT2
 70
0
  3
Dot (.5x) ........................................
 72
65
 73
2
 40
3.1749999999999998
 49
0.0
 74
0
 49
-3.1749999999999998
 74
0
  0
LTYPE
  5
5E
100
AcDbSymbolTableRecord
100
AcDbLinetypeTableRecord
  2
DASHEDX2
 70
0
  3
Dashed (2x) ____  ____  ____  ____  ____  ___
 72
65
 73
2
 40
38.0999999999999943
 49
25.3999999999999986
 74
0
 49
-12.6999999999999993
 74
0
  0
LTYPE
  5
5F
100
AcDbSymbolTableRecord
100
AcDbLinetypeTableRecord
  2
DOT
 70
0
  3
Dot . . . . . . . . . . . . . . . . . . . . . . . .
 72
65
 73
2
 40
6.3499999999999996
 49
0.0
 74
0
 49
-6.3499999999999996
 74
0
  0
ENDTAB
  0
TABLE
  2
LAYER
  5
2
100
AcDbSymbolTable
 70
17
  0
LAYER
  5
60
100
AcDbSymbolTableRecord
100
AcDbLayerTableRecord
  2
layer1
 70
0
 62
7
420
16777215
  6
Continuous
370
25
390
F
  0
LAYER
  5
61
100
AcDbSymbolTableRecord
100
AcDbLayerTableRecord
  2
52
 70
0
 62
253
420
11382189
  6
Continuous
370
-3
390
F
  0
LAYER
  5
62
100
AcDbSymbolTableRecord
100
AcDbLayerTableRecord
  2
20
 70
0
 62
7
420
16777215
  6
Continuous
370
-3
390
F
  0
LAYER
  5
63
100
AcDbSymbolTableRecord
100
AcDbLayerTableRecord
  2
25
 70
0
 62
253
420
11382189
  6
Continuous
370
-3
390
F
  0
LAYER
  5
64
100
AcDbSymbolTableRecord
100
AcDbLayerTableRecord
  2
Defpoints
 70
0
 62
7
420
16777215
  6
Continuous
290
0
370
-3
390
F
  0
LAYER
  5
65
100
AcDbSymbolTableRecord
100
AcDbLayerTableRecord
  2
1
 70
0
 62
22
420
13382400
  6
Continuous
370
-3
390
F
  0
LAYER
  5
66
100
AcDbSymbolTableRecord
100
AcDbLayerTableRecord
  2
27
 70
0
 62
253
420
11382189
  6
Continuous
370
-3
390
F
  0
LAYER
  5
67
100
AcDbSymbolTableRecord
100
AcDbLayerTableRecord
  2
19
 70
0
 62
31
420
13421670
  6
Continuous
370
-3
390
F
  0
LAYER
  5
68
100
AcDbSymbolTableRecord
100
AcDbLayerTableRecord
  2
23
 70
0
 62
7
420
16777215
  6
Continuous
370
-3
390
F
  0
LAYER
  5
69
100
AcDbSymbolTableRecord
100
AcDbLayerTableRecord
  2
peltier
 70
0
 62
7
420
16777215
  6
Continuous
370
25
390
F
  0
LAYER
  5
6A
100
AcDbSymbolTableRecord
100
AcDbLayerTableRecord
  2
51
 70
0
 62
253
420
11382189
  6
Continuous
370
-3
390
F
  0
LAYER
  5
6B
100
AcDbSymbolTableRecord
100
AcDbLayerTableRecord
  2
16
 70
0
 62
173
420
5000345
  6
Continuous
370
-3
390
F
  0
LAYER
  5
10
100
AcDbSymbolTableRecord
100
AcDbLayerTableRecord
  2
0
 70
0
 62
7
420
16777215
  6
Continuous
370
25
390
F
  0
LAYER
  5
6C
100
AcDbSymbolTableRecord
100
AcDbLayerTableRecord
  2
18
 70
0
 62
82
420
3394560
  6
Continuous
370
-3
390
F
  0
LAYER
  5
6D
100
AcDbSymbolTableRecord
100
AcDbLayerTableRecord
  2
17
 70
0
 62
82
420
3394560
  6
Continuous
370
-3
390
F
  0
LAYER
  5
6E
100
AcDbSymbolTableRecord
100
AcDbLayerTableRecord
  2
fan
 70
0
 62
7
420
16777215
  6
Continuous
370
25
390
F
  0
LAYER
  5
6F
100
AcDbSymbolTableRecord
100
AcDbLayerTableRecord
  2
21
 70
0
 62
253
420
11382189
  6
Continuous
370
-3
390
F
  0
ENDTAB
  0
TABLE
  2
STYLE
  5
3
100
AcDbSymbolTable
 70
1
  0
STYLE
  5
70
100
AcDbSymbolTableRecord
100
AcDbTextStyleTableRecord
  2
Standard
 70
0
 40
0.0
 41
1.0
 50
0.0
 71
0
 42
2.5
  3

  4

1001
ACAD
1000
txt
1071
0
  0
ENDTAB
  0
TABLE
  2
VIEW
  5
6
100
AcDbSymbolTable
 70
0
  0
ENDTAB
  0
TABLE
  2
UCS
  5
7
100
AcDbSymbolTable
 70
0
  0
ENDTAB
  0
TABLE
  2
APPID
  5
9
100
AcDbSymbolTable
 70
1
  0
APPID
  5
12
100
AcDbSymbolTableRecord
100
AcDbRegAppTableRecord
  2
ACAD
 70
0
  0
APPID
  5
71
100
AcDbSymbolTableRecord
100
AcDbRegAppTableRecord
  2
QCAD
 70
0
  0
ENDTAB
  0
TABLE
  2
DIMSTYLE
  5
A
100
AcDbSymbolTable
 70
1
100
AcDbDimStyleTable
 71
0
  0
DIMSTYLE
105
27
100
AcDbSymbolTableRecord
100
AcDbDimStyleTableRecord
  2
Standard
 41
2.5
 42
0.625
 43
3.75
 44
1.25
 70
0
 73
0
 74
0
 77
1
 78
8
140
2.5
141
2.5
143
0.03937007874016
147
0.625
171
3
172
1
271
2
272
2
274
3
278
44
283
0
284
8
340
70
  0
ENDTAB
  0
TABLE
  2
BLOCK_RECORD
  5
1
100
AcDbSymbolTable
 70
1
  0
BLOCK_RECORD
  5
1F
100
AcDbSymbolTableRecord
100
AcDbBlockTableRecord
  2
*Model_Space
340
22
  0
BLOCK_RECORD
  5
1B
100
AcDbSymbolTableRecord
100
AcDbBlockTableRecord
  2
*Paper_Space
340
1E
  0
BLOCK_RECORD
  5
23
100
AcDbSymbolTableRecord
100
AcDbBlockTableRecord
  2
*Paper_Space0
340
26
  0
BLOCK_RECORD
  5
72
100
AcDbSymbolTableRecord
100
AcDbBlockTableRecord
  2
OCTAGONP
340
0
  0
BLOCK_RECORD
  5
73
100
AcDbSymbolTableRecord
100
AcDbBlockTableRecord
  2
LONGP100
340
0
  0
BLOCK_RECORD
  5
74
100
AcDbSymbolTableRecord
100
AcDbBlockTableRecord
  2
OCTAGONV
340
0
  0
BLOCK_RECORD
  5
75
100
AcDbSymbolTableRecord
100
AcDbBlockTableRecord
  2
RECT
340
0
  0
ENDTAB
  0
ENDSEC
  0
SECTION
  2
BLOCKS
  0
BLOCK
  5
20
100
AcDbEntity
  8
0
100
AcDbBlockBegin
  2
*Model_Space
 70
0
 10
0.0
 20
0.0
 30
0.0
  3
*Model_Space
  1

  0
ENDBLK
  5
21
100
AcDbEntity
  8
0
100
AcDbBlockEnd
  0
BLOCK
  5
1C
100
AcDbEntity
 67
1
  8
0
100
AcDbBlockBegin
  2
*Paper_Space
 70
0
 10
0.0
 20
0.0
 30
0.0
  3
*Paper_Space
  1

  0
ENDBLK
  5
1D
100
AcDbEntity
 67
1
  8
0
100
AcDbBlockEnd
  0
BLOCK
  5
24
100
AcDbEntity
  8
0
100
AcDbBlockBegin
  2
*Paper_Space0
 70
0
 10
0.0
 20
0.0
 30
0.0
  3
*Paper_Space0
  1

  0
ENDBLK
  5
25
100
AcDbEntity
  8
0
100
AcDbBlockEnd
  0
BLOCK
  5
76
100
AcDbEntity
  8
0
100
AcDbBlockBegin
  2
OCTAGONP
 70
0
 10
0.0
 20
0.0
 30
0.0
  3
OCTAGONP
  1

  0
LWPOLYLINE
  5
77
100
AcDbEntity
  8
0
 62
256
370
-1
 48
1.0
  6
ByLayer
100
AcDbPolyline
 90
10
 70
0
 10
-0.25
 20
-0.1036
 30
0.0
 10
-0.25
 20
0.1036
 30
0.0
 10
-0.1036
 20
0.25
 30
0.0
 10
0.1036
 20
0.25
 30
0.0
 10
0.25
 20
0.1036
 30
0.0
 10
0.25
 20
-0.1036
 30
0.0
 10
0.1036
 20
-0.25
 30
0.0
 10
-0.1036
 20
-0.25
 30
0.0
 10
-0.25
 20
-0.1036
 30
0.0
 10
-0.25
 20
0.1036
 30
0.0
  0
ENDBLK
  5
78
100
AcDbEntity
  8
0
100
AcDbBlockEnd
  0
BLOCK
  5
79
100
AcDbEntity
  8
0
100
AcDbBlockBegin
  2
LONGP100
 70
0
 10
0.0
 20
0.0
 30
0.0
  3
LONGP100
  1

  0
LWPOLYLINE
  5
7A
100
AcDbEntity
  8
0
 62
256
370
-1
 48
1.0
  6
ByLayer
100
AcDbPolyline
 90
2
 70
0
 10
-0.5
 20
0.0
 30
0.0
 10
0.5
 20
0.0
 30
0.0
  0
LWPOLYLINE
  5
7B
100
AcDbEntity
  8
0
 62
256
370
-1
 48
1.0
  6
ByLayer
100
AcDbPolyline
 90
2
 70
0
 10
0.5
 20
-0.25
 30
0.0
 42
1.0
 10
0.5
 20
0.25
 30
0.0
  0
LWPOLYLINE
  5
7C
100
AcDbEntity
  8
0
 62
256
370
-1
 48
1.0
  6
ByLayer
100
AcDbPolyline
 90
2
 70
0
 10
-0.5
 20
0.25
 30
0.0
 42
1.0
 10
-0.5
 20
-0.25
 30
0.0
  0
ENDBLK
  5
7D
100
AcDbEntity
  8
0
100
AcDbBlockEnd
  0
BLOCK
  5
7E
100
AcDbEntity
  8
0
100
AcDbBlockBegin
  2
OCTAGONV
 70
0
 10
0.0
 20
0.0
 30
0.0
  3
OCTAGONV
  1

  0
LWPOLYLINE
  5
7F
100
AcDbEntity
  8
0
 62
256
370
-1
 48
1.0
  6
ByLayer
100
AcDbPolyline
 90
10
 70
0
 10
-0.25
 20
-0.1036
 30
0.0
 10
-0.25
 20
0.1036
 30
0.0
 10
-0.1036
 20
0.25
 30
0.0
 10
0.1036
 20
0.25
 30
0.0
 10
0.25
 20
0.1036
 30
0.0
 10
0.25
 20
-0.1036
 30
0.0
 10
0.1036
 20
-0.25
 30
0.0
 10
-0.1036
 20
-0.25
 30
0.0
 10
-0.25
 20
-0.1036
 30
0.0
 10
-0.25
 20
0.1036
 30
0.0
  0
ENDBLK
  5
80
100
AcDbEntity
  8
0
100
AcDbBlockEnd
  0
BLOCK
  5
81
100
AcDbEntity
  8
0
100
AcDbBlockBegin
  2
RECT
 70
0
 10
0.0
 20
0.0
 30
0.0
  3
RECT
  1

  0
SOLID
  5
82
100
AcDbEntity
  8
0
 62
256
370
-1
 48
1.0
  6
ByLayer
100
AcDbTrace
 10
-0.5
 20
-0.5
 30
0.0
 11
0.5
 21
-0.5
 31
0.0
 12
-0.5
 22
0.5
 32
0.0
 13
0.5
 23
0.5
 33
0.0
 39
0.0
  0
ENDBLK
  5
83
100
AcDbEntity
  8
0
100
AcDbBlockEnd
  0
ENDSEC
  0
SECTION
  2
ENTITIES
  0
LINE
  5
84
100
AcDbEntity
  8
layer1
 62
256
370
-1
 48
1.0
  6
ByLayer
100
AcDbLine
 10
386.0
 20
-46.5
 30
0.0
 11
386.0
 21
201.5
 31
0.0
  0
LINE
  5
85
100
AcDbEntity
  8
layer1
 62
256
370
-1
 48
1.0
  6
ByLayer
100
AcDbLine
 10
386.0
 20
201.5
 30
0.0
 11
218.0
 21
201.5
 31
0.0
  0
LINE
  5
86
100
AcDbEntity
  8
layer1
 62
256
370
-1
 48
1.0
  6
ByLayer
100
AcDbLine
 10
218.0
 20
201.5
 30
0.0
 11
218.0
 21
-46.5
 31
0.0
  0
LINE
  5
87
100
AcDbEntity
  8
layer1
 62
256
370
-1
 48
1.0
  6
ByLayer
100
AcDbLine
 10
218.0
 20
-46.5
 30
0.0
 11
386.0
 21
-46.5
 31
0.0
  0
LINE
  5
88
100
AcDbEntity
  8
layer1
 62
256
370
-1
 48
1.0
  6
ByLayer
100
AcDbLine
 10
384.0000000000003411
 20
156.5
 30
0.0
 11
384.0
 21
186.5
 31
0.0
  0
LINE
  5
89
100
AcDbEntity
  8
layer1
 62
256
370
-1
 48
1.0
  6
ByLayer
100
AcDbLine
 10
384.0000000000003411
 20
-1.5
 30
0.0
 11
384.0
 21
-31.5
 31
0.0
  0
LINE
  5
8A
100
AcDbEntity
  8
layer1
 62
256
370
-1
 48
1.0
  6
ByLayer
100
AcDbLine
 10
275.0
 20
-44.5000000000003411
 30
0.0
 11
245.0
 21
-44.4999999999998863
 31
0.0
  0
LINE
  5
8B
100
AcDbEntity
  8
layer1
 62
256
370
-1
 48
1.0
  6
ByLayer
100
AcDbLine
 10
275.0
 20
199.5000000000003126
 30
0.0
 11
245.0
 21
199.4999999999999147
 31
0.0
  0
LINE
  5
8C
100
AcDbEntity
  8
layer1
 62
256
370
-1
 48
1.0
  6
ByLayer
100
AcDbLine
 10
329.0
 20
199.5000000000003126
 30
0.0
 11
359.0
 21
199.5
 31
0.0
  0
LINE
  5
8D
100
AcDbEntity
  8
layer1
 62
256
370
-1
 48
1.0
  6
ByLayer
100
AcDbLine
 10
329.0
 20
-44.5000000000002842
 30
0.0
 11
359.0
 21
-44.5
 31
0.0
  0
LINE
  5
8E
100
AcDbEntity
  8
layer1
 62
256
370
-1
 48
1.0
  6
ByLayer
100
AcDbLine
 10
384.0000000000003411
 20
-1.5
 30
0.0
 11
384.0
 21
-31.5
 31
0.0
  0
LINE
  5
8F
100
AcDbEntity
  8
layer1
 62
256
370
-1
 48
1.0
  6
ByLayer
100
AcDbLine
 10
220.0
 20
-1.5
 30
0.0
 11
220.0
 21
-31.5
 31
0.0
  0
LINE
  5
90
100
AcDbEntity
  8
layer1
 62
256
370
-1
 48
1.0
  6
ByLayer
100
AcDbLine
 10
384.0
 20
92.5000000000000568
 30
0.0
 11
383.9999999999998863
 21
62.5
 31
0.0
  0
LINE
  5
91
100
AcDbEntity
  8
layer1
 62
256
370
-1
 48
1.0
  6
ByLayer
100
AcDbLine
 10
220.0
 20
92.5000000000000568
 30
0.0
 11
220.0
 21
62.5000000000000568
 31
0.0
  0
LINE
  5
92
100
AcDbEntity
  8
layer1
 62
256
370
-1
 48
1.0
  6
ByLayer
100
AcDbLine
 10
220.0
 20
92.5
 30
0.0
 11
220.0
 21
62.5
 31
0.0
  0
LINE
  5
93
100
AcDbEntity
  8
layer1
 62
256
370
-1
 48
1.0
  6
ByLayer
100
AcDbLine
 10
384.0
 20
92.4999999999999432
 30
0.0
 11
384.0
 21
62.5
 31
0.0
  0
LINE
  5
94
100
AcDbEntity
  8
layer1
 62
256
370
-1
 48
1.0
  6
ByLayer
100
AcDbLine
 10
275.0
 20
-44.5
 30
0.0
 11
245.0
 21
-44.5
 31
0.0
  0
LINE
  5
95
100
AcDbEntity
  8
layer1
 62
256
370
-1
 48
1.0
  6
ByLayer
100
AcDbLine
 10
329.0
 20
-44.5
 30
0.0
 11
359.0
 21
-44.5
 31
0.0
  0
LINE
  5
96
100
AcDbEntity
  8
layer1
 62
256
370
-1
 48
1.0
  6
ByLayer
100
AcDbLine
 10
329.0
 20
199.5
 30
0.0
 11
359.0
 21
199.5
 31
0.0
  0
LINE
  5
97
100
AcDbEntity
  8
layer1
 62
256
370
-1
 48
1.0
  6
ByLayer
100
AcDbLine
 10
329.0
 20
-44.5
 30
0.0
 11
359.0
 21
-44.5
 31
0.0
  0
LINE
  5
98
100
AcDbEntity
  8
layer1
 62
256
370
-1
 48
1.0
  6
ByLayer
100
AcDbLine
 10
275.0
 20
199.5
 30
0.0
 11
245.0
 21
199.4999999999999147
 31
0.0
  0
LINE
  5
99
100
AcDbEntity
  8
layer1
 62
256
370
-1
 48
1.0
  6
ByLayer
100
AcDbLine
 10
275.0
 20
-44.5
 30
0.0
 11
245.0
 21
-44.4999999999998863
 31
0.0
  0
LINE
  5
9A
100
AcDbEntity
  8
peltier
 62
256
370
-1
 48
1.0
  6
ByLayer
100
AcDbLine
 10
218.0
 20
-46.5
 30
0.0
 11
218.0
 21
73.5
 31
0.0
  0
POINT
  5
9B
100
AcDbEntity
  8
peltier
 62
256
370
-1
 48
1.0
  6
ByLayer
100
AcDbPoint
 10
218.0
 20
73.5
 30
0.0
  0
LINE
  5
9C
100
AcDbEntity
  8
0
 62
256
370
-1
 48
1.0
  6
ByLayer
100
AcDbLine
 10
384.0
 20
156.4999999999999716
 30
0.0
 11
380.2000000000000455
 21
156.5
 31
0.0
  0
LINE
  5
9D
100
AcDbEntity
  8
0
 62
256
370
-1
 48
1.0
  6
ByLayer
100
AcDbLine
 10
220.0
 20
156.5
 30
0.0
 11
223.7999999999999545
 21
156.5
 31
0.0
  0
LINE
  5
9E
100
AcDbEntity
  8
0
 62
256
370
-1
 48
1.0
  6
ByLayer
100
AcDbLine
 10
220.0
 20
92.5000000000001137
 30
0.0
 11
223.7999999999999545
 21
92.5000000000001137
 31
0.0
  0
LINE
  5
9F
100
AcDbEntity
  8
0
 62
256
370
-1
 48
1.0
  6
ByLayer
100
AcDbLine
 10
220.0
 20
-1.4999999999999432
 30
0.0
 11
223.7999999999999545
 21
-1.4999999999999432
 31
0.0
  0
LINE
  5
A0
100
AcDbEntity
  8
0
 62
256
370
-1
 48
1.0
  6
ByLayer
100
AcDbLine
 10
384.0
 20
-1.4999999999999432
 30
0.0
 11
380.2000000000000455
 21
-1.5
 31
0.0
  0
LINE
  5
A1
100
AcDbEntity
  8
0
 62
256
370
-1
 48
1.0
  6
ByLayer
100
AcDbLine
 10
329.0
 20
-44.5
 30
0.0
 11
329.0
 21
-40.7000000000000455
 31
0.0
  0
LINE
  5
A2
100
AcDbEntity
  8
0
 62
256
370
-1
 48
1.0
  6
ByLayer
100
AcDbLine
 10
329.0
 20
199.5
 30
0.0
 11
329.0
 21
195.7000000000000455
 31
0.0
  0
LINE
  5
A3
100
AcDbEntity
  8
0
 62
256
370
-1
 48
1.0
  6
ByLayer
100
AcDbLine
 10
275.0
 20
199.5
 30
0.0
 11
275.0
 21
195.7000000000000739
 31
0.0
  0
LINE
  5
A4
100
AcDbEntity
  8
0
 62
256
370
-1
 48
1.0
  6
ByLayer
100
AcDbLine
 10
384.0
 20
92.5000000000001137
 30
0.0
 11
380.2000000000000455
 21
92.5000000000001137
 31
0.0
  0
LINE
  5
A5
100
AcDbEntity
  8
0
 62
256
370
-1
 48
1.0
  6
ByLayer
100
AcDbLine
 10
275.0
 20
-44.5
 30
0.0
 11
275.0
 21
-40.7000000000000455
 31
0.0
  0
LINE
  5
A6
100
AcDbEntity
  8
0
 62
256
370
-1
 48
1.0
  6
ByLayer
100
AcDbLine
 10
223.7999999999999545
 20
156.5
 30
0.0
 11
223.7999999999999545
 21
186.5
 31
0.0
  0
LINE
  5
A7
100
AcDbEntity
  8
0
 62
256
370
-1
 48
1.0
  6
ByLayer
100
AcDbLine
 10
223.7999999999999545
 20
92.5000000000001137
 30
0.0
 11
223.7999999999999545
 21
62.5000000000001705
 31
0.0
  0
LINE
  5
A8
100
AcDbEntity
  8
0
 62
256
370
-1
 48
1.0
  6
ByLayer
100
AcDbLine
 10
380.2000000000000455
 20
-1.5
 30
0.0
 11
380.2000000000000455
 21
-31.4999999999999432
 31
0.0
  0
LINE
  5
A9
100
AcDbEntity
  8
0
 62
256
370
-1
 48
1.0
  6
ByLayer
100
AcDbLine
 10
223.7999999999999545
 20
-1.4999999999999432
 30
0.0
 11
223.7999999999999545
 21
-31.4999999999998863
 31
0.0
  0
LINE
  5
AA
100
AcDbEntity
  8
0
 62
256
370
-1
 48
1.0
  6
ByLayer
100
AcDbLine
 10
275.0
 20
195.7000000000000739
 30
0.0
 11
245.0
 21
195.7000000000000455
 31
0.0
  0
LINE
  5
AB
100
AcDbEntity
  8
0
 62
256
370
-1
 48
1.0
  6
ByLayer
100
AcDbLine
 10
329.0
 20
195.7000000000000455
 30
0.0
 11
358.9999999999998863
 21
195.7000000000000455
 31
0.0
  0
LINE
  5
AC
100
AcDbEntity
  8
0
 62
256
370
-1
 48
1.0
  6
ByLayer
100
AcDbLine
 10
380.2000000000000455
 20
92.5000000000001137
 30
0.0
 11
380.2000000000000455
 21
62.5000000000001705
 31
0.0
  0
LINE
  5
AD
100
AcDbEntity
  8
0
 62
256
370
-1
 48
1.0
  6
ByLayer
100
AcDbLine
 10
329.0
 20
-40.7000000000000455
 30
0.0
 11
358.9999999999998863
 21
-40.7000000000000455
 31
0.0
  0
LINE
  5
AE
100
AcDbEntity
  8
0
 62
256
370
-1
 48
1.0
  6
ByLayer
100
AcDbLine
 10
275.0
 20
-40.7000000000000455
 30
0.0
 11
245.0
 21
-40.7000000000000455
 31
0.0
  0
LINE
  5
AF
100
AcDbEntity
  8
0
 62
256
370
-1
 48
1.0
  6
ByLayer
100
AcDbLine
 10
380.2000000000000455
 20
156.5
 30
0.0
 11
380.2000000000000455
 21
186.4999999999999432
 31
0.0
  0
LINE
  5
B0
100
AcDbEntity
  8
0
 62
256
370
-1
 48
1.0
  6
ByLayer
100
AcDbLine
 10
223.7999999999999545
 20
-31.4999999999998863
 30
0.0
 11
220.0
 21
-31.5
 31
0.0
  0
LINE
  5
B1
100
AcDbEntity
  8
0
 62
256
370
-1
 48
1.0
  6
ByLayer
100
AcDbLine
 10
380.2000000000000455
 20
186.4999999999999432
 30
0.0
 11
384.0
 21
186.5000000000000568
 31
0.0
  0
LINE
  5
B2
100
AcDbEntity
  8
0
 62
256
370
-1
 48
1.0
  6
ByLayer
100
AcDbLine
 10
223.7999999999999545
 20
186.5
 30
0.0
 11
220.0
 21
186.5
 31
0.0
  0
LINE
  5
B3
100
AcDbEntity
  8
0
 62
256
370
-1
 48
1.0
  6
ByLayer
100
AcDbLine
 10
380.2000000000000455
 20
62.5000000000001705
 30
0.0
 11
383.9999999999998863
 21
62.5
 31
0.0
  0
LINE
  5
B4
100
AcDbEntity
  8
0
 62
256
370
-1
 48
1.0
  6
ByLayer
100
AcDbLine
 10
223.7999999999999545
 20
62.5000000000001705
 30
0.0
 11
220.0
 21
62.5000000000000568
 31
0.0
  0
LINE
  5
B5
100
AcDbEntity
  8
0
 62
256
370
-1
 48
1.0
  6
ByLayer
100
AcDbLine
 10
380.2000000000000455
 20
-31.4999999999999432
 30
0.0
 11
384.0
 21
-31.5000000000000568
 31
0.0
  0
LINE
  5
B6
100
AcDbEntity
  8
0
 62
256
370
-1
 48
1.0
  6
ByLayer
100
AcDbLine
 10
245.0
 20
195.7000000000000455
 30
0.0
 11
245.0
 21
199.4999999999999147
 31
0.0
  0
LINE
  5
B7
100
AcDbEntity
  8
0
 62
256
370
-1
 48
1.0
  6
ByLayer
100
AcDbLine
 10
358.9999999999998863
 20
195.7000000000000455
 30
0.0
 11
359.0
 21
199.5
 31
0.0
  0
LINE
  5
B8
100
AcDbEntity
  8
0
 62
256
370
-1
 48
1.0
  6
ByLayer
100
AcDbLine
 10
358.9999999999998863
 20
-40.7000000000000455
 30
0.0
 11
359.0
 21
-44.5
 31
0.0
  0
LINE
  5
B9
100
AcDbEntity
  8
0
 62
256
370
-1
 48
1.0
  6
ByLayer
100
AcDbLine
 10
245.0
 20
-40.7000000000000455
 30
0.0
 11
245.0
 21
-44.4999999999998863
 31
0.0
  0
LINE
  5
BA
100
AcDbEntity
  8
0
 62
256
370
-1
 48
1.0
  6
ByLayer
100
AcDbLine
 10
220.0
 20
-31.5
 30
0.0
 11
220.0
 21
-1.4999999999999432
 31
0.0
  0
LINE
  5
BB
100
AcDbEntity
  8
0
 62
256
370
-1
 48
1.0
  6
ByLayer
100
AcDbLine
 10
384.0
 20
186.5000000000000568
 30
0.0
 11
384.0
 21
156.4999999999999716
 31
0.0
  0
LINE
  5
BC
100
AcDbEntity
  8
0
 62
256
370
-1
 48
1.0
  6
ByLayer
100
AcDbLine
 10
220.0
 20
186.5
 30
0.0
 11
220.0
 21
156.5
 31
0.0
  0
LINE
  5
BD
100
AcDbEntity
  8
0
 62
256
370
-1
 48
1.0
  6
ByLayer
100
AcDbLine
 10
383.9999999999998863
 20
62.5
 30
0.0
 11
384.0
 21
92.5000000000001137
 31
0.0
  0
LINE
  5
BE
100
AcDbEntity
  8
0
 62
256
370
-1
 48
1.0
  6
ByLayer
100
AcDbLine
 10
220.0
 20
62.5000000000000568
 30
0.0
 11
220.0
 21
92.5000000000001137
 31
0.0
  0
LINE
  5
BF
100
AcDbEntity
  8
0
 62
256
370
-1
 48
1.0
  6
ByLayer
100
AcDbLine
 10
384.0
 20
-31.5000000000000568
 30
0.0
 11
384.0
 21
-1.4999999999999432
 31
0.0
  0
LINE
  5
C0
100
AcDbEntity
  8
0
 62
256
370
-1
 48
1.0
  6
ByLayer
100
AcDbLine
 10
245.0
 20
199.4999999999999147
 30
0.0
 11
275.0
 21
199.5
 31
0.0
  0
LINE
  5
C1
100
AcDbEntity
  8
0
 62
256
370
-1
 48
1.0
  6
ByLayer
100
AcDbLine
 10
359.0
 20
199.5
 30
0.0
 11
329.0
 21
199.5
 31
0.0
  0
LINE
  5
C2
100
AcDbEntity
  8
0
 62
256
370
-1
 48
1.0
  6
ByLayer
100
AcDbLine
 10
359.0
 20
-44.5
 30
0.0
 11
329.0
 21
-44.5
 31
0.0
  0
LINE
  5
C3
100
AcDbEntity
  8
0
 62
256
370
-1
 48
1.0
  6
ByLayer
100
AcDbLine
 10
245.0
 20
-44.4999999999998863
 30
0.0
 11
275.0
 21
-44.5
 31
0.0
  0
CIRCLE
  5
C4
100
AcDbEntity
  8
20
 62
256
370
-1
 48
1.0
  6
ByLayer
100
AcDbCircle
 10
-104.539999999999992
 20
304.1800000000000068
 30
0.0
 40
1.6000000000000001
  0
CIRCLE
  5
C5
100
AcDbEntity
  8
20
 62
256
370
-1
 48
1.0
  6
ByLayer
100
AcDbCircle
 10
-104.539999999999992
 20
363.1800000000000068
 30
0.0
 40
1.6000000000000001
  0
CIRCLE
  5
C6
100
AcDbEntity
  8
20
 62
256
370
-1
 48
1.0
  6
ByLayer
100
AcDbCircle
 10
-53.7399999999999949
 20
288.9399999999999977
 30
0.0
 40
1.6000000000000001
  0
CIRCLE
  5
C7
100
AcDbEntity
  8
20
 62
256
370
-1
 48
1.0
  6
ByLayer
100
AcDbCircle
 10
-53.7399999999999949
 20
347.9399999999999977
 30
0.0
 40
1.6000000000000001
  0
CIRCLE
  5
C8
100
AcDbEntity
  8
20
 62
256
370
-1
 48
1.0
  6
ByLayer
100
AcDbCircle
 10
-105.8100000000000023
 20
255.9200000000000159
 30
0.0
 40
1.6000000000000001
  0
CIRCLE
  5
C9
100
AcDbEntity
  8
20
 62
256
370
-1
 48
1.0
  6
ByLayer
100
AcDbCircle
 10
-105.8100000000000023
 20
314.9200000000000159
 30
0.0
 40
1.6000000000000001
  0
LINE
  5
CA
100
AcDbEntity
  8
0
 62
256
370
-1
 48
1.0
  6
ByLayer
100
AcDbLine
 10
-122.0
 20
310.0
 30
0.0
 11
-50.0
 21
310.0
 31
0.0
  0
LINE
  5
CB
100
AcDbEntity
  8
0
 62
256
370
-1
 48
1.0
  6
ByLayer
100
AcDbLine
 10
-122.0
 20
369.0
 30
0.0
 11
-50.0
 21
369.0
 31
0.0
  0
LINE
  5
CC
100
AcDbEntity
  8
0
 62
256
370
-1
 48
1.0
  6
ByLayer
100
AcDbLine
 10
-50.0
 20
310.0
 30
0.0
 11
-50.0
 21
251.0
 31
0.0
  0
LINE
  5
CD
100
AcDbEntity
  8
0
 62
256
370
-1
 48
1.0
  6
ByLayer
100
AcDbLine
 10
-50.0
 20
369.0
 30
0.0
 11
-50.0
 21
310.0
 31
0.0
  0
LINE
  5
CE
100
AcDbEntity
  8
0
 62
256
370
-1
 48
1.0
  6
ByLayer
100
AcDbLine
 10
-50.0
 20
251.0
 30
0.0
 11
-122.0
 21
251.0
 31
0.0
  0
LINE
  5
CF
100
AcDbEntity
  8
0
 62
256
370
-1
 48
1.0
  6
ByLayer
100
AcDbLine
 10
-50.0
 20
310.0
 30
0.0
 11
-122.0
 21
310.0
 31
0.0
  0
LINE
  5
D0
100
AcDbEntity
  8
0
 62
256
370
-1
 48
1.0
  6
ByLayer
100
AcDbLine
 10
-122.0
 20
251.0
 30
0.0
 11
-122.0
 21
310.0
 31
0.0
  0
LINE
  5
D1
100
AcDbEntity
  8
0
 62
256
370
-1
 48
1.0
  6
ByLayer
100
AcDbLine
 10
-122.0
 20
310.0
 30
0.0
 11
-122.0
 21
369.0
 31
0.0
  0
LINE
  5
D2
100
AcDbEntity
  8
0
 62
256
370
-1
 48
1.0
  6
ByLayer
100
AcDbLine
 10
-57.7794000000000025
 20
279.5843999999999596
 30
0.0
 11
-53.0
 21
279.5843999999999596
 31
0.0
  0
LINE
  5
D3
100
AcDbEntity
  8
0
 62
256
370
-1
 48
1.0
  6
ByLayer
100
AcDbLine
 10
-53.0
 20
279.5843999999999596
 30
0.0
 11
-53.0
 21
259.0
 31
0.0
  0
LINE
  5
D4
100
AcDbEntity
  8
0
 62
256
370
-1
 48
1.0
  6
ByLayer
100
AcDbLine
 10
-66.3138000000000147
 20
259.0
 30
0.0
 11
-66.3138000000000147
 21
279.5843999999999596
 31
0.0
  0
LINE
  5
D5
100
AcDbEntity
  8
0
 62
256
370
-1
 48
1.0
  6
ByLayer
100
AcDbLine
 10
-54.5209756495452638
 20
301.9130999999999858
 30
0.0
 11
-54.5
 21
290.6000000000000227
 31
0.0
  0
LINE
  5
D6
100
AcDbEntity
  8
0
 62
256
370
-1
 48
1.0
  6
ByLayer
100
AcDbLine
 10
-54.5
 20
290.6000000000000227
 30
0.0
 11
-57.7793999999999954
 21
290.5698999999999614
 31
0.0
  0
LINE
  5
D7
100
AcDbEntity
  8
0
 62
256
370
-1
 48
1.0
  6
ByLayer
100
AcDbLine
 10
-57.7793999999999954
 20
290.5698999999999614
 30
0.0
 11
-57.7793999999999954
 21
279.5843999999999596
 31
0.0
  0
CIRCLE
  5
D8
100
AcDbEntity
  8
0
 62
256
370
-1
 48
1.0
  6
ByLayer
100
AcDbCircle
 10
-104.539999999999992
 20
304.1800000000000068
 30
0.0
 40
1.7648312234330192
  0
CIRCLE
  5
D9
100
AcDbEntity
  8
0
 62
256
370
-1
 48
1.0
  6
ByLayer
100
AcDbCircle
 10
-104.539999999999992
 20
363.1800000000000068
 30
0.0
 40
1.7648312234330192
  0
CIRCLE
  5
DA
100
AcDbEntity
  8
0
 62
256
370
-1
 48
1.0
  6
ByLayer
100
AcDbCircle
 10
-53.7399999999999949
 20
288.9399999999999977
 30
0.0
 40
1.7485100128792024
  0
CIRCLE
  5
DB
100
AcDbEntity
  8
0
 62
256
370
-1
 48
1.0
  6
ByLayer
100
AcDbCircle
 10
-53.7399999999999949
 20
347.9399999999999977
 30
0.0
 40
1.7485100128792024
  0
CIRCLE
  5
DC
100
AcDbEntity
  8
0
 62
256
370
-1
 48
1.0
  6
ByLayer
100
AcDbCircle
 10
-105.8100000000000023
 20
255.9200000000000159
 30
0.0
 40
1.7322956533827376
  0
CIRCLE
  5
DD
100
AcDbEntity
  8
0
 62
256
370
-1
 48
1.0
  6
ByLayer
100
AcDbCircle
 10
-105.8100000000000023
 20
314.9200000000000159
 30
0.0
 40
1.7322956533827376
  0
LINE
  5
DE
100
AcDbEntity
  8
0
 62
256
370
-1
 48
1.0
  6
ByLayer
100
AcDbLine
 10
-66.3138000000000147
 20
259.0
 30
0.0
 11
-53.0
 21
259.0
 31
0.0
  0
LINE
  5
DF
100
AcDbEntity
  8
0
 62
256
370
-1
 48
1.0
  6
ByLayer
100
AcDbLine
 10
-66.3138000000000147
 20
259.0
 30
0.0
 11
-53.0
 21
259.0
 31
0.0
  0
LINE
  5
E0
100
AcDbEntity
  8
0
 62
256
370
-1
 48
1.0
  6
ByLayer
100
AcDbLine
 10
-54.5209756495452638
 20
301.9130999999999858
 30
0.0
 11
-66.3138000000000147
 21
302.0
 31
0.0
  0
LINE
  5
E1
100
AcDbEntity
  8
0
 62
256
370
-1
 48
1.0
  6
ByLayer
100
AcDbLine
 10
-66.3138000000000147
 20
302.0
 30
0.0
 11
-66.3138000000000147
 21
259.0
 31
0.0
  0
LINE
  5
E2
100
AcDbEntity
  8
0
 62
256
370
-1
 48
1.0
  6
ByLayer
100
AcDbLine
 10
-101.0
 20
252.0
 30
0.0
 11
-92.0
 21
252.0
 31
0.0
  0
LINE
  5
E3
100
AcDbEntity
  8
0
 62
256
370
-1
 48
1.0
  6
ByLayer
100
AcDbLine
 10
-92.0
 20
252.0
 30
0.0
 11
-92.0
 21
267.0
 31
0.0
  0
LINE
  5
E4
100
AcDbEntity
  8
0
 62
256
370
-1
 48
1.0
  6
ByLayer
100
AcDbLine
 10
-92.0
 20
267.0
 30
0.0
 11
-101.0
 21
267.0
 31
0.0
  0
LINE
  5
E5
100
AcDbEntity
  8
0
 62
256
370
-1
 48
1.0
  6
ByLayer
100
AcDbLine
 10
-101.0
 20
267.0
 30
0.0
 11
-101.0
 21
252.0
 31
0.0
  0
ENDSEC
  0
SECTION
  2
OBJECTS
  0
DICTIONARY
  5
C
100
AcDbDictionary
280
0
281
1
  3
ACAD_GROUP
350
D
  3
ACAD_LAYOUT
350
1A
  3
ACAD_MLINESTYLE
350
17
  3
ACAD_PLOTSETTINGS
350
19
  3
ACAD_PLOTSTYLENAME
350
E
  3
AcDbVariableDictionary
350
E6
  3
QCAD_OBJECTS
350
E7
  0
DICTIONARY
  5
D
100
AcDbDictionary
280
0
281
1
  0
ACDBDICTIONARYWDFLT
  5
E
100
AcDbDictionary
281
1
  3
Normal
350
F
100
AcDbDictionaryWithDefault
340
F
  0
ACDBPLACEHOLDER
  5
F
  0
DICTIONARY
  5
17
100
AcDbDictionary
280
0
281
1
  3
Standard
350
18
  0
MLINESTYLE
  5
18
100
AcDbMlineStyle
  2
STANDARD
 70
0
  3

 62
256
 51
90.0
 52
90.0
 71
2
 49
0.5
 62
256
  6
BYLAYER
 49
-0.5
 62
256
  6
BYLAYER
  0
DICTIONARY
  5
19
100
AcDbDictionary
280
0
281
1
  0
DICTIONARY
  5
1A
100
AcDbDictionary
281
1
  3
Layout1
350
1E
  3
Layout2
350
26
  3
Model
350
22
  0
LAYOUT
  5
1E
100
AcDbPlotSettings
  1

  2
none_device
  4

  6

 40
0.0
 41
0.0
 42
0.0
 43
0.0
 44
0.0
 45
0.0
 46
0.0
 47
0.0
 48
0.0
 49
0.0
140
0.0
141
0.0
142
1.0
143
1.0
 70
688
 72
0
 73
0
 74
5
  7

 75
16
147
1.0
148
0.0
149
0.0
100
AcDbLayout
  1
Layout1
 70
1
 71
1
 10
0.0
 20
0.0
 11
420.0
 21
297.0
 12
0.0
 22
0.0
 32
0.0
 14
100000000000000000000.0
 24
100000000000000000000.0
 34
100000000000000000000.0
 15
-100000000000000000000.0
 25
-100000000000000000000.0
 35
-100000000000000000000.0
146
0.0
 13
0.0
 23
0.0
 33
0.0
 16
1.0
 26
0.0
 36
0.0
 17
0.0
 27
1.0
 37
0.0
 76
0
330
1B
  0
LAYOUT
  5
22
100
AcDbPlotSettings
  1

  2
none_device
  4

  6

 40
0.0
 41
0.0
 42
0.0
 43
0.0
 44
0.0
 45
0.0
 46
0.0
 47
0.0
 48
0.0
 49
0.0
140
0.0
141
0.0
142
1.0
143
1.0
 70
1712
 72
0
 73
0
 74
0
  7

 75
0
147
1.0
148
0.0
149
0.0
100
AcDbLayout
  1
Model
 70
1
 71
0
 10
0.0
 20
0.0
 11
12.0
 21
9.0
 12
0.0
 22
0.0
 32
0.0
 14
0.0
 24
0.0
 34
0.0
 15
0.0
 25
0.0
 35
0.0
146
0.0
 13
0.0
 23
0.0
 33
0.0
 16
1.0
 26
0.0
 36
0.0
 17
0.0
 27
1.0
 37
0.0
 76
0
330
1F
  0
LAYOUT
  5
26
100
AcDbPlotSettings
  1

  2
none_device
  4

  6

 40
0.0
 41
0.0
 42
0.0
 43
0.0
 44
0.0
 45
0.0
 46
0.0
 47
0.0
 48
0.0
 49
0.0
140
0.0
141
0.0
142
1.0
143
1.0
 70
688
 72
0
 73
0
 74
5
  7

 75
16
147
1.0
148
0.0
149
0.0
100
AcDbLayout
  1
Layout2
 70
1
 71
2
 10
0.0
 20
0.0
 11
12.0
 21
9.0
 12
0.0
 22
0.0
 32
0.0
 14
0.0
 24
0.0
 34
0.0
 15
0.0
 25
0.0
 35
0.0
146
0.0
 13
0.0
 23
0.0
 33
0.0
 16
1.0
 26
0.0
 36
0.0
 17
0.0
 27
1.0
 37
0.0
 76
0
330
23
  0
DICTIONARY
  5
E6
100
AcDbDictionary
281
1
  3
DIMASSOC
350
E9
  3
HIDETEXT
350
E8
  0
DICTIONARYVAR
  5
E8
100
DictionaryVariables
280
0
  1
2
  0
DICTIONARYVAR
  5
E9
100
DictionaryVariables
280
0
  1
1
  0
DICTIONARY
  5
E7
100
AcDbDictionary
281
1
  3
ColorSettings/BackgroundColor
350
EA
  3
ColorSettings/ColorMode
350
EB
  3
Grid/DisplayGrid00
350
EC
  3
Grid/DisplayGrid01
350
ED
  3
Grid/DisplayGrid02
350
EE
  3
Grid/DisplayGrid03
350
EF
  3
Grid/GridSpacingX00
350
F0
  3
Grid/GridSpacingX01
350
F1
  3
Grid/GridSpacingX02
350
F2
  3
Grid/GridSpacingX03
350
F3
  3
Grid/GridSpacingY00
350
F4
  3
Grid/GridSpacingY01
350
F5
  3
Grid/GridSpacingY02
350
F6
  3
Grid/GridSpacingY03
350
F7
  3
Grid/IsometricGrid00
350
F8
  3
Grid/IsometricGrid01
350
F9
  3
Grid/IsometricGrid02
350
FA
  3
Grid/IsometricGrid03
350
FB
  3
Grid/IsometricProjection00
350
FC
  3
Grid/IsometricProjection01
350
FD
  3
Grid/IsometricProjection02
350
FE
  3
Grid/IsometricProjection03
350
FF
  3
Grid/MetaGridSpacingX00
350
100
  3
Grid/MetaGridSpacingX01
350
101
  3
Grid/MetaGridSpacingX02
350
102
  3
Grid/MetaGridSpacingX03
350
103
  3
Grid/MetaGridSpacingY00
350
104
  3
Grid/MetaGridSpacingY01
350
105
  3
Grid/MetaGridSpacingY02
350
106
  3
Grid/MetaGridSpacingY03
350
107
  3
MultiPageSettings/Columns
350
108
  3
MultiPageSettings/GlueMarginsBottom
350
109
  3
MultiPageSettings/GlueMarginsLeft
350
10A
  3
MultiPageSettings/GlueMarginsRight
350
10B
  3
MultiPageSettings/GlueMarginsTop
350
10C
  3
MultiPageSettings/PrintCropMarks
350
10D
  3
MultiPageSettings/Rows
350
10E
  3
PageSettings/OffsetX
350
10F
  3
PageSettings/OffsetY
350
110
  3
PageSettings/PageOrientation
350
111
  3
PageSettings/PaperHeight
350
112
  3
PageSettings/PaperWidth
350
113
  3
PageSettings/Scale
350
114
  3
PageSettings/ShowPaperBorders
350
115
  3
QCADVersion
350
116
  3
UnitSettings/PaperUnit
350
117
  3
ViewportCenter
350
118
  3
ViewportHeight
350
119
  3
ViewportWidth
350
11A
  0
XRECORD
  5
EA
330
E7
100
AcDbXrecord
280
1
1000
Blanca
  0
XRECORD
  5
EB
330
E7
100
AcDbXrecord
280
1
1000
FullColor
  0
XRECORD
  5
EC
330
E7
100
AcDbXrecord
280
1
290
1
  0
XRECORD
  5
ED
330
E7
100
AcDbXrecord
280
1
290
1
  0
XRECORD
  5
EE
330
E7
100
AcDbXrecord
280
1
290
1
  0
XRECORD
  5
EF
330
E7
100
AcDbXrecord
280
1
290
1
  0
XRECORD
  5
F0
330
E7
100
AcDbXrecord
280
1
1000
auto
  0
XRECORD
  5
F1
330
E7
100
AcDbXrecord
280
1
1000
auto
  0
XRECORD
  5
F2
330
E7
100
AcDbXrecord
280
1
1000
auto
  0
XRECORD
  5
F3
330
E7
100
AcDbXrecord
280
1
1000
auto
  0
XRECORD
  5
F4
330
E7
100
AcDbXrecord
280
1
1000
auto
  0
XRECORD
  5
F5
330
E7
100
AcDbXrecord
280
1
1000
auto
  0
XRECORD
  5
F6
330
E7
100
AcDbXrecord
280
1
1000
auto
  0
XRECORD
  5
F7
330
E7
100
AcDbXrecord
280
1
1000
auto
  0
XRECORD
  5
F8
330
E7
100
AcDbXrecord
280
1
290
0
  0
XRECORD
  5
F9
330
E7
100
AcDbXrecord
280
1
290
0
  0
XRECORD
  5
FA
330
E7
100
AcDbXrecord
280
1
290
0
  0
XRECORD
  5
FB
330
E7
100
AcDbXrecord
280
1
290
0
  0
XRECORD
  5
FC
330
E7
100
AcDbXrecord
280
1
 90
0
  0
XRECORD
  5
FD
330
E7
100
AcDbXrecord
280
1
 90
0
  0
XRECORD
  5
FE
330
E7
100
AcDbXrecord
280
1
 90
0
  0
XRECORD
  5
FF
330
E7
100
AcDbXrecord
280
1
 90
0
  0
XRECORD
  5
100
330
E7
100
AcDbXrecord
280
1
1000
auto
  0
XRECORD
  5
101
330
E7
100
AcDbXrecord
280
1
1000
auto
  0
XRECORD
  5
102
330
E7
100
AcDbXrecord
280
1
1000
auto
  0
XRECORD
  5
103
330
E7
100
AcDbXrecord
280
1
1000
auto
  0
XRECORD
  5
104
330
E7
100
AcDbXrecord
280
1
1000
auto
  0
XRECORD
  5
105
330
E7
100
AcDbXrecord
280
1
1000
auto
  0
XRECORD
  5
106
330
E7
100
AcDbXrecord
280
1
1000
auto
  0
XRECORD
  5
107
330
E7
100
AcDbXrecord
280
1
1000
auto
  0
XRECORD
  5
108
330
E7
100
AcDbXrecord
280
1
 90
1
  0
XRECORD
  5
109
330
E7
100
AcDbXrecord
280
1
 40
10.0
  0
XRECORD
  5
10A
330
E7
100
AcDbXrecord
280
1
 40
10.0
  0
XRECORD
  5
10B
330
E7
100
AcDbXrecord
280
1
 40
10.0
  0
XRECORD
  5
10C
330
E7
100
AcDbXrecord
280
1
 40
10.0
  0
XRECORD
  5
10D
330
E7
100
AcDbXrecord
280
1
290
0
  0
XRECORD
  5
10E
330
E7
100
AcDbXrecord
280
1
 90
1
  0
XRECORD
  5
10F
330
E7
100
AcDbXrecord
280
1
 40
0.0
  0
XRECORD
  5
110
330
E7
100
AcDbXrecord
280
1
 40
0.0
  0
XRECORD
  5
111
330
E7
100
AcDbXrecord
280
1
1000
Portrait
  0
XRECORD
  5
112
330
E7
100
AcDbXrecord
280
1
 40
297.0
  0
XRECORD
  5
113
330
E7
100
AcDbXrecord
280
1
 40
210.0
  0
XRECORD
  5
114
330
E7
100
AcDbXrecord
280
1
1000
1:1
  0
XRECORD
  5
115
330
E7
100
AcDbXrecord
280
1
290
1
  0
XRECORD
  5
116
330
E7
100
AcDbXrecord
280
1
1000
3.16.4
  0
XRECORD
  5
117
330
E7
100
AcDbXrecord
280
1
 90
4
  0
XRECORD
  5
119
330
E7
100
AcDbXrecord
280
1
 40
710.1129756805804618
  0
XRECORD
  5
11A
330
E7
100
AcDbXrecord
280
1
 40
950.5075687840286491
  0
ENDSEC
  0
EOF
